<svg xmlns="http://www.w3.org/2000/svg" width="921" viewBox="0 0 690.75 947.25" height="1263" version="1.0"><defs><clipPath id="d"><path d="M.828.426h519.336v768.043H.828Zm0 0"/></clipPath><clipPath id="c"><path d="M0 0h521v769H0z"/></clipPath><clipPath id="e"><path d="M.148 90H601v850H.148Zm0 0"/></clipPath><clipPath id="f"><path d="M47 94h604v852.5H47Zm0 0"/></clipPath><filter x="0%" y="0%" width="100%" height="100%" id="a"><feColorMatrix values="0 0 0 0 1 0 0 0 0 1 0 0 0 0 1 0 0 0 1 0" color-interpolation-filters="sRGB"/></filter><mask id="b"><g filter="url(#a)"><path fill-opacity=".53" d="M-69.075-94.725h828.9v1136.7h-828.9z"/></g></mask></defs><g mask="url(#b)"><g clip-path="url(#c)" transform="translate(65 156)"><g clip-path="url(#d)"><path fill="#cbddd1" d="M520.293 258.96C520.293 116.18 404.008.435 260.563.435 117.113.434.827 116.18.827 258.96v509.297h519.465Zm0 0" fill-rule="evenodd"/></g></g></g><g clip-path="url(#e)"><path fill="#272727" d="M347.371 92.168c-4.77-.703-9.89-1.059-13.95-1.234-1.944-.176-3.71 0-4.944.175-1.235.176-1.942.356-1.942.532 0 .175.707.527 1.942.882 1.234.352 3 .707 4.945 1.235 3.883.883 9.18 1.765 13.77 2.472 17.48 2.649 32.312 6.711 45.378 10.95l9.535 3.175c3.004 1.239 6.004 2.297 8.829 3.356 5.828 2.121 10.949 4.77 15.894 6.887 19.95 9.359 34.961 18.715 49.086 29.132s27.719 21.895 42.73 37.965c1.942 1.942 3.708 4.239 5.649 6.356 1.941 2.12 3.887 4.414 5.828 6.71 3.707 4.766 7.945 9.712 11.828 15.54 1.059 1.41 1.942 2.824 3.004 4.234q.792 1.06 1.59 2.121c.527.707 1.059 1.59 1.41 2.293 1.942 3.004 4.063 6.184 6.18 9.535 1.941 3.356 3.887 6.887 6.004 10.418 1.058 1.766 1.941 3.711 3.004 5.477 1.058 1.941 1.941 3.883 3 5.824 7.945 15.715 13.418 30.195 17.656 43.262 3.887 13.242 7.062 24.894 8.828 35.844 4.063 21.718 4.945 39.375 5.121 57.03.176 35.493.176 70.806.356 141.786 0 5.477 0 6.71.703 6.887.53 0 1.414-1.235 1.414-6.707.176-70.809.176-106.297.176-141.79 0-17.831-.883-35.667-4.766-57.562-1.766-10.945-4.77-22.953-8.828-36.195-4.239-13.242-9.715-27.899-17.66-43.79-1.059-1.94-1.942-3.886-3-5.827-1.059-1.942-1.942-3.883-3-5.649-2.121-3.71-4.063-7.062-6.004-10.594-2.121-3.355-4.239-6.535-6.18-9.714a15.6 15.6 0 0 1-1.414-2.293c-.531-.707-1.059-1.414-1.59-2.297-1.058-1.41-2.117-2.824-3-4.239-3.887-5.824-8.125-10.77-11.832-15.714-1.941-2.47-3.883-4.59-5.828-6.887-1.941-2.117-3.707-4.414-5.648-6.356-15.184-16.242-28.782-28.074-43.082-38.668-14.305-10.593-29.489-20.128-49.618-29.664-5.12-2.296-10.418-4.945-16.246-7.062-2.824-1.059-5.824-2.297-8.828-3.531l-9.535-3.18c-13.242-4.238-28.426-8.473-46.082-11.121-.531-.18-.707-.004-.883-.004m252.496 509.406v168.274c0 5.472-.355 13.597-.883 13.597-.53-.18-1.238-8.125-1.414-13.422-.175-84.222.532-84.222.352-168.449 0-7.062.18-9.71.883-9.886.707-.176 1.062 2.296 1.062 9.535zM3.762 623.473c.355 18.715 0 15.535 0 38.312.18 22.778-.176 52.973-.176 83.168-.176 30.192-.176 60.563-.352 83.164-.175 22.778-.175 18.715-.355 37.785 0 5.473-.176 6.532-.707 6.18-.527-.352-.883-1.059-.883-6.004-.176-18.89-.527-14.832-.703-37.61 0-22.777-.18-53.148-.18-83.34 0-30.194.532-60.386.532-83.163.175-22.778 0-18.719.351-37.434.18-7.062.356-9.183 1.063-8.125.527.707 1.234 1.59 1.41 7.067m.707 312.703h4.769c1.235 0 2.117.18 3.176.18 2.121.175 4.414.175 10.066.175 11.477 0 27.72-.176 47.32-.355 19.598.18 42.376.18 66.743.355 24.367-.176 50.5-.176 76.633-.355 26.133 0 52.265-.176 76.633-.176s47.32.176 66.918.176c39.199.355 32.488.18 65.156.531 5.472 0 8.476.531 8.297 1.059-.176.53-3.176.882-8.297.882H356.55c-19.598 0-42.375.176-66.742.176-24.368.18-50.5.18-76.457.356-26.133.175-52.086.351-76.633.527H69.8c-19.602 0-35.492-.703-46.969-.883-11.477 0-8.828 0-17.832-.176H1.29c0-3.882.179-4.941.355-6.003.175-.883.351-1.06.707-.883.351.355.703.707.882 1.414.176.351.352.883.352 1.59v.707c0 .175 0 .175.176.351.355.352.531.352.707.352m473.031.18c8.652-.356 7.95 0 18.895 0 10.77-.18 25.074.175 39.55.175 14.48.176 28.606.176 39.555.352 10.77.176 8.652.355 17.656.355 5.473.176 6.532.176 5.649.703-.703.532-1.059.707-5.297.707-9.004.176-6.707.532-17.48.707-10.77 0-25.426.176-39.903.176-14.48 0-28.605-.527-39.375-.527-10.773-.176-8.652 0-17.305-.356-7.062-.175-8.828-.527-6.535-1.234 1.238-.176.531-.883 4.59-1.059m121.836-117.067c.176 9.004 0 7.063.176 17.832 0 10.77-.176 25.074-.176 39.375 0 28.781 0 28.606-.352 57.387 0 2.824 0 4.058-.18 3.883-.35-.176-.882-.707-.882-3.356-.176-28.781-.176-28.957-.176-57.738 0-14.477.531-28.781.707-39.55 0-10.77 0-8.653.176-17.657 0-3.707 0-3.356.355-2.824.176.703.352-.18.352 2.648M.406 546.133c-.176-44.32.356-35.492.356-88.637 0-13.246-.176-27.723-.176-42.91 0-7.59-.18-15.36-.18-23.48 0-4.063.18-8.126.18-12.184 0-2.121 0-4.063.176-6.18.176-2.12.351-4.062.527-6.18C2.527 349.966 5 332.66 9.24 315.708c4.234-17.125 10.062-34.078 17.48-50.32 14.652-32.489 35.488-62.332 58.972-85.992 11.653-12.004 24.016-22.422 36.375-31.43 12.36-9.004 24.72-16.418 36.372-22.953 3.003-1.59 5.652-2.825 8.3-4.239 1.235-.707 2.473-1.234 3.707-1.941 1.235-.531 2.473-1.059 3.532-1.59 4.59-1.941 8.3-3.883 11.832-5.12 6.886-2.65 11.652-4.767 16.597-6.18 4.766-1.59 9.18-3.176 15.184-4.766 3-.707 6.355-1.942 10.418-2.824 4.062-.883 8.652-1.946 14.125-3.004q8.208-1.325 7.945-.528c-.176.528-2.824 1.059-7.77 1.942-5.472 1.058-9.886 2.293-13.949 3.175-3.882.883-7.238 2.122-10.238 2.829-6.004 1.586-10.418 3.351-15.012 4.941-9.355 3.356-19.773 6.887-43.257 19.246-11.477 6.535-23.66 14.125-35.844 23.133-12.008 9.18-24.016 19.773-35.668 31.605-23.13 23.66-42.906 53.325-57.387 85.461-7.238 16.067-13.066 32.664-17.3 49.438-4.594 16.953-7.063 33.726-8.301 50.324-.176 2.117-.352 4.063-.528 6.18-.18 2.117-.18 4.062-.18 6.18-.175 4.062-.351 8.12-.351 12.007 0 7.946-.176 15.89-.176 23.485-.176 15.007-.355 29.308-.355 42.73 0 53.145 0 44.14-.176 88.461 0 9.535-.527 13.773-1.414 13.418-1.059-.352-1.766-4.238-1.766-13.242m0 0"/></g><path fill="#272727" d="M38.723 539.422c-1.059-.527-2.118 24.543-2.118 43.613v146.38c.176 73.097.176 73.276.176 146.374-.176 21.191-.176 36.375-.176 48.734 16.774.176 28.958.356 43.79.532 14.125.175 31.078.351 57.386.351 73.098.176 73.453-.883 146.551-.707 73.102.356 72.75.356 145.848.707 73.101.176 60.742.176 133.843.356h15.36c31.781 0 56.68-1.59 55.797-3.356-.883-1.59-27.367-3.18-59.153-3.18H429.652c-73.101.176-73.101.176-146.203.176-73.097.176-72.746.707-145.847.707-48.555.176-64.094.176-96.934.176 0-7.238 0-22.422-.18-45.023-.175-73.102.707-73.453.532-146.555-.352-73.102-.352-72.746-.708-145.848 0-17.832-.707-43.082-1.59-43.437m596.28-2.824c0-73.805-.706-73.63-.882-147.438.352-36.902-2.121-55.265-5.476-73.273-.352-2.297-.883-4.594-1.41-6.711a452 452 0 0 1-1.59-7.063c-.352-1.238-.532-2.472-.883-3.707-.352-1.238-.707-2.472-1.059-3.71-.707-2.473-1.414-5.122-2.297-7.946-3.531-10.945-7.77-24.191-15.715-40.79-4.058-8.296-7.77-15.358-11.476-21.538-3.531-6.356-7.063-11.477-10.242-16.246-3.176-4.766-6.356-8.828-9.18-12.89-3.004-3.884-5.828-7.415-8.652-10.946-3-3.531-6.004-6.887-9.184-10.594-3.352-3.531-6.883-7.238-10.945-11.3-8.301-7.946-18.364-17.305-33.196-28.25-14.656-10.95-26.84-17.66-36.726-23.31-10.067-5.472-18.54-9.359-27.016-13.066-8.476-3.53-17.129-6.886-28.25-10.242-2.828-.883-5.652-1.59-8.828-2.473-3.18-.882-6.36-1.585-9.89-2.293-1.766-.355-3.532-.882-5.473-1.238q-2.912-.526-5.828-1.058c-4.059-.707-8.297-1.59-12.711-2.118-4.594-.53-8.828-1.238-12.89-1.59-4.063-.355-7.77-.53-11.477-.882-3.532-.176-6.887-.176-10.243-.356-1.59 0-3.18 0-4.59-.175h-4.414c-2.824 0-5.652.175-8.3.175s-5.121.18-7.59.356c-4.945.351-9.535.707-13.95 1.234-4.593.531-9.183 1.238-13.949 1.945-4.77.883-9.89 1.766-15.539 2.825-2.824.707-5.652 1.41-8.828 2.117-1.59.355-3.18.707-4.77 1.238-1.585.528-3.35.883-4.94 1.41-1.766.532-3.532 1.059-5.298 1.59-1.765.531-3.71 1.059-5.652 1.766-3.883 1.414-7.945 2.648-12.184 4.238-17.304 6.356-29.488 12.89-39.55 18.188-2.473 1.41-4.766 2.824-7.063 4.058-2.297 1.238-4.414 2.473-6.535 3.887-2.117 1.234-4.059 2.648-6 3.883-1.945 1.238-3.887 2.472-5.652 3.886-3.707 2.649-7.594 5.297-11.301 8.297-1.941 1.59-3.883 3.004-6.004 4.77-1.059.883-2.117 1.586-3.176 2.469-1.062.882-2.12 1.77-3.18 2.828-2.117 1.941-4.414 3.882-6.886 6.004-2.473 2.117-4.766 4.59-7.414 6.882-1.239 1.239-2.649 2.473-4.063 3.887-1.234 1.414-2.648 2.824-4.062 4.238-2.824 3-5.824 6.004-8.828 9.536-1.41 1.765-3 3.355-4.414 5.12-.707.883-1.41 1.587-2.118 2.47-.707.882-1.238 1.59-1.941 2.472-2.473 3.18-4.77 6.18-7.066 9.004-4.059 5.828-7.946 10.95-10.77 15.894-1.59 2.473-3 4.766-4.414 6.887-1.414 2.293-2.473 4.414-3.707 6.531-1.238 2.118-2.297 4.239-3.531 6.18-1.059 2.121-2.121 4.063-3.18 6.18-1.059 2.12-2.117 4.062-3.18 6.18-1.058 2.12-1.941 4.238-3 6.535-1.058 2.293-1.941 4.414-3 6.886-1.062 2.47-1.945 4.942-3.004 7.59-4.238 10.594-8.652 23.66-12.71 41.496-4.063 17.832-5.829 31.606-6.711 42.907-.176 2.824-.532 5.648-.708 8.12-.175 2.65-.175 5.122-.351 7.594-.176 4.946-.356 9.536-.356 14.125-.175 18.54-.351 37.079-.351 73.809 0 19.066-.352 43.965-1.234 44.316-1.063.356-1.766-24.187-1.766-43.257v-1.239c.176-36.902.176-55.265.176-73.804 0-4.59.175-9.184.351-14.125 0-2.473.176-4.946.176-7.594.18-2.649.355-5.297.707-8.3.883-11.477 2.648-25.427 6.887-43.434 4.238-18.012 8.828-31.254 13.066-42.024 1.059-2.648 1.942-5.297 3-7.77 1.063-2.472 2.121-4.769 3.18-7.062 1.058-2.297 1.941-4.414 3-6.535 1.062-2.117 2.121-4.238 3.18-6.18 1.058-2.117 2.12-4.238 3.18-6.18 1.234-2.117 2.292-4.062 3.53-6.18 1.235-2.116 2.473-4.413 3.883-6.53 1.414-2.297 2.825-4.594 4.414-7.067.707-1.234 1.59-2.469 2.473-3.707.883-1.234 1.766-2.472 2.648-3.883 1.942-2.648 3.887-5.472 6.004-8.3 2.297-2.825 4.59-5.825 7.063-9.004.707-.883 1.238-1.59 1.941-2.473.707-.883 1.414-1.59 2.121-2.473 1.41-1.59 2.825-3.355 4.414-5.12 3-3.532 6.004-6.532 8.829-9.532 1.414-1.414 2.824-3.004 4.062-4.238 1.41-1.414 2.824-2.649 4.059-3.887 2.648-2.473 4.945-4.941 7.418-7.062 2.472-2.118 4.765-4.06 6.886-6.004 2.118-1.942 4.414-3.532 6.356-5.297 2.117-1.59 4.058-3.176 6.004-4.766 3.883-3.004 7.77-5.473 11.476-8.3 3.883-2.65 7.77-4.942 11.828-7.59 2.121-1.415 4.239-2.473 6.536-3.887 2.293-1.235 4.59-2.649 7.238-4.063 10.242-5.297 22.601-11.652 40.082-18.183 17.48-6.36 30.898-9.535 42.2-12.008 5.651-1.059 10.773-1.942 15.714-2.824 4.945-.532 9.535-1.239 13.95-1.766 4.593-.531 9.183-.707 14.124-1.062 2.473-.176 4.945-.176 7.594-.352 2.648 0 5.297-.176 8.3-.176 11.477.176 25.426.352 43.79 3 1.058.18 2.293.356 3.355.356l3.176.527c2.121.355 4.238.707 6.18 1.062q2.913.527 5.828 1.06c1.941.35 3.707.882 5.472 1.233 3.532.883 6.887 1.59 9.891 2.297 3.176.883 6 1.766 8.828 2.473 11.121 3.352 19.774 6.531 28.25 9.887 8.477 3.53 16.95 7.414 27.192 12.71 10.066 5.653 22.25 12.364 37.082 23.485 14.828 11.125 25.07 20.484 33.37 28.605 4.06 4.063 7.59 7.946 11.122 11.477 3.18 3.707 6.36 7.242 9.36 10.594 2.823 3.71 5.827 7.242 8.827 11.125 2.825 4.062 6.004 8.12 9.184 13.066 3.176 4.946 6.707 10.067 10.238 16.422 3.711 6.18 7.418 13.418 11.48 21.719 7.946 16.773 12.184 30.015 15.716 40.965 3.351 11.12 5.472 20.129 7.238 29.132 3.531 18.188 6.004 36.727 5.648 73.63 0 73.808-.883 73.452-.883 147.261 0 7.414.18 13.242-.175 13.242.53 0 .53-5.828.53-12.89m-.175 250.023V650.133c0-9.18.176-17.832.527-18.188.532-.351.883-8.297.883.883v17.656c0 68.157 0 68.336-.176 136.313-.175 34.078-.175 67.805-.351 93.055-.18 12.714-.18 23.128-.356 30.546-.175 7.414-.175 11.653-.351 11.829-.176.18-.356-4.059-.356-11.297v-30.727c.18-25.426.18-59.504.18-93.582m0 0"/><g clip-path="url(#f)"><path fill="#272727" d="M484.742 127.836c.707 0-.707-.707-3.355-2.117-1.235-.707-2.825-1.414-4.59-2.297-1.766-.883-3.711-1.766-5.652-2.649-2.118-.882-3.883-1.941-5.825-2.648a267 267 0 0 0-4.945-1.941 390 390 0 0 0-7.945-3.18c-4.59-1.586-7.946-2.824-11.657-4.059-7.414-2.297-15.89-5.476-39.02-9.89-5.827-1.235-11.831-1.766-18.362-2.649-3.18-.527-6.536-.527-9.891-.883-1.766-.175-3.352-.351-5.117-.351-1.766-.176-3.531-.352-5.297-.352-3.531-.18-7.242-.18-10.774-.355-1.765-.176-3.707 0-5.648 0s-3.707 0-5.652.176c-1.942 0-3.883 0-5.824.18-1.946.175-3.887.35-5.829.35-1.941.177-3.882.352-6.004.352-1.94.18-4.062.18-6.003.532-32.489 3.355-68.508 12.36-104.352 30.722-18.012 9.184-35.668 20.485-52.617 34.078-16.953 13.598-32.844 29.665-47.145 47.676-7.242 9.004-13.773 18.715-20.129 28.781-6.004 10.239-11.832 20.833-16.777 31.958-5.117 10.949-9.355 22.601-13.242 34.433-3.531 11.828-6.707 24.012-8.828 36.547-2.473 12.363-3.532 25.074-4.59 37.79-.176 6.355-.531 12.886-.531 19.245v19.246c0 25.602-.176 51.735-.176 78.043-.176 52.617-.176 105.942-.352 159.266 0 52.62-.707 105.062-.707 156.972 0 22.426.176 44.672.352 66.743.176 10.949.176 21.894.355 32.843.176 11.829.176 23.66.352 35.313 9.183 0 18.363 0 27.367-.176 47.5 0 93.938.883 137.727.883 48.558-.176 94.64-.352 136.843-.527 40.078-.18 77.16-.18 109.649-.356 32.488-.176 61.27-.176 84.754-.351 46.793-.176 35.136-.883 71.687-1.239 12.89-.175 29.133-.351 31.254-1.058 2.649-.883-12.183-2.297-28.957-2.473-36.55-.351-28.957.176-75.574-.176-23.305 0-51.203-.176-83.692-.351-32.492-.18-70.101.351-110.003.176-42.204-.176-87.758-.356-136.493-.356-43.789 0-89.52-.176-136.84-.176H55.32c.18-20.304.18-40.965.356-61.976 0-22.07.176-44.317.176-66.742-.176-51.735-.352-104.176-.532-156.797 0-53.5-.175-106.649-.175-159.266 0-26.309-.176-52.266-.176-78.043v-19.246c0-6.356.176-12.715.351-18.895.883-12.535 1.946-25.07 4.239-37.253 1.941-12.184 5.12-24.192 8.652-35.844 3.887-11.656 7.77-22.957 12.89-33.903 4.766-10.949 10.594-21.367 16.422-31.43 6.18-9.89 12.536-19.6 19.598-28.429 13.95-18.008 29.84-34.078 46.793-47.496 16.95-13.598 34.606-24.719 52.262-33.902 35.316-18.188 71.16-27.723 103.297-31.254 16.066-1.586 31.25-1.942 45.199-1.586 13.95.703 26.84 1.941 38.14 4.058 2.825.532 5.473.883 7.946 1.414 2.472.528 4.59 1.059 6.71 1.41 4.06.883 7.594 1.59 10.419 2.473 3 .707 5.472 1.414 7.59 1.942 1.062.355 2.12.53 3.18.882.882.356 1.94.532 2.823.883 3.711 1.063 6.887 2.121 11.477 3.711 2.297.883 4.77 1.766 7.95 3 1.585.531 3.175 1.238 4.94 1.942 1.766.707 3.708 1.59 5.829 2.472 3.176 1.414 6.18 2.649 8.652 3.887 2.117 1.41 3.883 2.117 4.414 2.293m162.973 416.531c0-8.652 0-9.004-.176-20.129 0-5.472.176-14.832.176-22.601 0-7.77-.176-14.657-.176-24.192-.176-19.066-.176-43.257-.351-69.039v-14.652c0-1.59 0-3.356-.18-4.945-.176-3.356-.176-6.536-.352-9.887-.176-3.356-.531-6.535-.707-9.89l-.351-4.942c-.176-1.59-.356-3.18-.532-4.945-.351-3.18-.882-6.532-1.234-9.711l-1.59-9.536c-.531-3.18-1.058-6.355-1.941-9.359a299 299 0 0 0-23.133-66.39c-9.711-19.598-20.656-36.727-32.133-51.735-11.48-15.184-24.898-28.605-33.02-36.195-1.94-1.946-3.355-3.356-4.593-4.239-1.235-1.058-1.942-1.765-2.824-2.472-1.59-1.414-2.825-2.649-6.004-5.297-4.414-3.531-8.473-7.238-10.946-9.535-2.472-2.117-3.355-3.18-1.058-1.942.527.352 1.586 1.059 2.824 1.942 1.234 1.058 2.824 2.117 4.59 3.531 3.355 2.473 6.887 5.297 8.652 6.887 3.18 2.648 4.063 3.355 5.121 4.062.528.352 1.059.883 2.118 1.586.53.356 1.062.883 1.765 1.414.707.707 1.59 1.414 2.649 2.297a1282 1282 0 0 1 6.886 6.356c2.473 2.296 5.121 5.12 7.946 7.945 2.828 2.824 5.652 6.004 8.652 9.36 1.414 1.765 3.004 3.355 4.414 5.12 1.414 1.766 3.004 3.707 4.414 5.473 11.832 15.008 24.723 34.254 35.317 56.324 2.472 5.653 5.296 11.125 7.414 17.13 1.058 3 2.296 5.827 3.53 8.827 1.063 3 2.122 6.004 3.005 9.004.527 1.59 1.058 3.004 1.59 4.594l1.234 4.59 2.648 9.36c.707 3.175 1.414 6.355 2.118 9.355l1.062 4.77.883 4.765c.527 3.18 1.058 6.355 1.586 9.535.531 3.18.883 6.355 1.238 9.535.883 6.356 1.234 12.715 1.766 19.07.351 3.176.176 6.356.351 9.536 0 3.175.18 6.355.18 9.355 0 6.184 0 12.363-.18 18.363a35149 35149 0 0 1-.527 65.864c0 9.535 0 17.304-.356 23.66-.351 6.355-.351 12.008-.527 17.48-.176 11.125-.355 9.535-.531 18.188-.176 6.004-.176 15.183-.527 12.71-.004-1.058-.18-3.53-.18-6.355m-.176 393.047c-.351-22.601 0-22.953-.176-51.207-.176-28.25-.883-65.332-.883-102.941s0-77.688.352-105.942c.18-14.125.18-27.191.356-35.312.175-8.301.351-3.707.527-9.89.18-9.18.707-20.657 1.062-16.243.176 1.941.352 8.828.528 12.36.175 6.179.175 4.59.355 12.89 0 8.297.176 22.07.176 36.195.176 28.254-.356 67.45-.356 105.059 0 37.61-.175 73.984-.527 102.234-.176 28.254-.176 23.84-.531 46.442 0 4.941-.176 13.418-.352 11.296-.18-.882-.53-2.824-.53-4.94m0 0"/></g><path fill="#1f5014" d="M361.848 85.988c-6.887-4.765-13.95-9.004-21.364-13.418-3.71-2.117-7.593-4.062-11.476-6.004l-5.828-3c-1.942-.882-4.063-1.765-6.004-2.648q-5.033-2.122-10.067-4.238c-3.53-1.414-7.062-2.473-10.593-3.707-3.707-1.063-7.414-2.473-11.121-3.356-3.711-.883-7.594-1.941-11.657-2.648a125 125 0 0 0-12.183-2.121c-4.059-.528-8.297-1.235-12.711-1.586-8.653-.532-17.656-1.063-26.84-.707-9.18.175-18.188 1.234-27.543 2.293-4.594.53-9.36 1.414-13.95 2.297l-7.062 1.234-7.066 1.59c-19.067 4.062-38.137 10.773-56.856 18.719-3.707 1.585-7.414 3.53-11.12 5.296.882.176 1.765-.18 2.823-.53l12.184-4.766c4.059-1.59 8.297-2.829 12.36-4.415 24.542-8.476 49.792-14.128 73.804-16.421 24.367-2.297 47.676-1.414 68.512 2.824 1.59.351 3.707.351 4.238 1.414-1.765.527-3.355.527-4.945.527-7.414.356-14.832.883-22.426 2.121-3.707.528-7.59 1.235-11.3 1.942-3.708.883-7.415 1.765-11.302 2.648-16.773 4.59-33.37 10.594-48.906 18.715l-5.828 3.004-5.652 3.176c-3.707 2.12-7.59 4.414-11.121 6.71-7.243 4.77-14.48 9.536-21.192 15.008-1.765 1.414-3.531 3.004-5.117 4.414-1.238 1.063-2.121 2.297-1.766 3.004.352.883 1.766.528 3.352 0 1.063-.355 2.297-.882 3.355-1.59 2.473-1.414 5.122-2.648 7.594-4.062 3.18-1.941 6.531-3.531 9.887-5.121 3.355-1.766 6.535-3.352 9.89-5.117l10.063-4.77 4.945-2.472 5.121-2.118 10.239-4.414c3.355-1.414 6.886-2.648 10.418-4.062 6.886-2.824 13.949-5.121 21.011-7.594 23.309-7.945 47.676-12.887 71.864-13.594 3.886 0 6.886.352 9.715 1.414 17.832 6.707 33.546 14.828 48.378 24.188 10.77 6.71 21.012 13.95 31.254 21.367 5.121 3.707 10.063 7.59 15.184 11.477l7.594 6.004c2.472 1.94 5.12 3.882 7.593 6.003 2.293 1.766 1.942 2.118-1.062 1.942h-1.059c-5.472-.356-10.77-.531-16.066-.707-5.297 0-10.773 0-15.895.176-3.175.175-5.824-.176-8.828-1.235-26.484-8.3-54.91-13.242-84.047-13.422-13.066 0-26.132.532-39.375 2.473-6.71.707-13.242 2.121-19.773 3.531-3.355.707-6.535 1.59-9.89 2.473s-6.708 1.766-9.887 3c-1.239.355-2.473.707-3.707 1.414.351.355.882.176 1.41 0 6.004-1.59 12.36-2.473 18.363-3.707 3.004-.531 6.18-.883 9.184-1.414 3-.352 6.18-.883 9.18-1.234 37.788-4.77 75.042-1.239 109.296 8.12 1.063.176 3.004.356 3.004 1.239s-2.121.527-3.18.883c-.351.175-.707.175-1.058.175-17.13 2.293-33.902 6.356-49.442 11.829-15.535 5.476-30.546 12.183-43.433 20.836-.707.53-1.766.882-2.297 1.94 2.473-1.41 4.945-2.468 7.418-3.706a131 131 0 0 1 7.062-3.531c26.836-13.243 57.207-21.364 88.989-24.368 3.004-.175 5.828-.351 8.652 0 2.828.356 5.477 1.06 8.477 2.122 13.597 5.117 26.84 10.945 39.375 17.656s24.718 14.125 36.375 22.246c12.886 9.008 25.07 18.894 36.55 29.488 11.477 10.594 22.07 21.719 32.133 33.547.531.707 1.414 1.414 1.239 2.121-.708.176-1.415-.531-2.122-1.058-3.175-2.297-6.53-4.239-9.71-6.18l-4.942-3.004-4.945-2.824c-29.84-16.598-61.801-26.664-92.7-28.781-6.355-.532-12.89-.708-19.07-.352-1.234.176-2.472.176-3.531.703-1.941.883-1.766 2.297.176 3.531.707.356 1.59.707 2.297 1.063 2.472.703 4.765 1.586 7.238 2.117 1.414.352 3.004.531 4.414.883l4.414 1.058c3.004.707 5.828 1.414 8.828 2.297a541 541 0 0 1 51.383 16.422c12.89 4.59 25.426 9.711 38.14 15.715l5.825 2.824c1.945 1.059 3.71 2.117 5.652 3.18l5.649 3.351c1.945 1.239 3.71 2.473 5.476 3.711l5.473 4.059c1.941 1.414 3.531 2.828 5.297 4.414 1.765 1.414 3.53 3.004 5.297 4.594 1.765 1.586 3.53 3.531 5.296 5.297 1.942 1.941 3.532 3.882 5.122 6.004 7.77 11.476 15.183 22.953 22.246 34.253l3.71 6.004 3.532 6c2.472 4.063 4.59 8.125 6.887 12.184 4.234 8.125 8.472 16.422 12.003 24.898 4.063 9.536 7.594 19.422 10.774 29.489 3.707 12.36 6.887 25.07 9.71 38.136.352 1.239.708 2.829.528 4.414-.883-.882-1.234-2.292-1.586-3.355l-4.238-10.238c-1.414-3.356-3.004-6.711-4.414-10.067-6.18-13.066-13.422-24.894-21.192-35.488-7.945-10.773-16.597-20.309-25.953-29.312-2.12-2.118-4.062-4.414-6.18-6.887-12.007-15.36-25.78-30.723-40.257-46.438l-2.828-3c-.528-.53-.883-.882-1.41-1.414l-1.239-1.234-5.12-5.121c-1.587-1.766-3.532-3.356-5.118-4.945-1.766-1.59-3.355-3.356-5.121-4.946l-5.297-4.765-2.648-2.297-2.649-2.293c-1.765-1.59-3.531-3.004-5.297-4.594-1.77-1.41-3.71-2.824-5.476-4.414-3.532-3-7.414-5.649-10.946-8.473-1.765-1.414-3.71-2.648-5.652-4.062-1.941-1.235-3.707-2.649-5.648-3.883-3.887-2.473-7.594-5.121-11.657-7.242-1.941-1.059-3.882-2.293-6-3.531l-6.004-3.176-2.828-1.59-2.824-1.414-5.824-2.824c-1.945-.883-3.887-1.59-5.828-2.473-1.942-.707-3.887-1.59-6.004-2.293-1.235-.356-2.473-.887-4.063-1.063.883.708 1.766 1.063 2.473 1.415 9.008 4.238 18.188 8.652 26.84 13.773l3.18 1.766c1.058.527 2.117 1.234 3.175 1.941l6.18 3.883 6.004 4.062c1.059.707 2.121 1.414 3.004 2.118l3 2.12c7.945 5.649 15.539 11.829 23.129 18.188 8.3 6.887 16.07 14.3 24.015 21.719 2.825 2.824 5.473 5.648 8.297 8.473l9.36 10.242 9.183 10.062c3 3.356 6.004 6.711 8.828 10.067.707.882 1.59 1.59 1.942 2.824-1.235-.352-1.942-1.235-2.824-1.942-2.825-2.296-6.004-4.765-8.829-7.062-3.004-2.297-6.004-4.77-9.183-7.063-4.059-3.18-8.477-6.355-12.711-9.535l-3.18-2.297-2.824-1.765-5.652-3.531c-3.707-2.293-7.77-4.415-11.477-6.532l-5.828-3.004c-1.941-.882-3.707-2.117-5.649-2.824l-7.238-3.355c-2.472-1.059-4.945-2.118-7.242-3.176-1.234-.531-2.293-1.063-3.531-1.59l-3.707-1.414-3.531-1.41-1.766-.707-1.766-.531-7.238-2.473-7.242-1.942c-2.293-.707-4.766-1.234-7.238-1.765s-4.766-1.059-7.239-1.414c-11.652-2.117-23.308-3.176-34.433-2.117-.883.175-1.766 0-2.825.707 1.59.175 3.004.175 4.414.351 1.415.176 2.649.356 4.063.531 20.305 1.766 41.672 6.711 62.504 15.54 3.004 1.058 5.828 2.648 8.832 3.882 3 1.235 5.824 2.825 8.828 4.239.703.351 1.59.53 1.766 1.414-.883.351-1.59 0-2.473 0a550 550 0 0 1-8.477-1.063 68 68 0 0 0-8.476 0c-1.41 0-2.649.18-4.059.18-1.414.176-2.824.351-4.062.527a64 64 0 0 0-7.946 1.59 86.3 86.3 0 0 0-13.949 4.766c-1.41.53-2.648 1.238-3.707 2.472-1.414 1.59-.883 2.825.883 3.532 1.234.355 2.648.355 4.063.355 1.058 0 2.117 0 3.351-.18l3.356-.175c2.12 0 4.414-.176 6.71-.352 17.657-1.059 36.02 0 54.915-.176 1.234 0 2.472.528 3.707 1.235l6.18 3.886c.53.352 1.058.883 1.765 1.235l1.766 1.414 3.53 2.648c4.77 3.707 9.184 7.238 13.95 10.77 9.004 7.238 17.836 14.3 26.133 21.718 6.531 5.825 13.066 11.829 18.894 18.188 1.586 1.586 3 3.176 4.414 4.766l4.239 4.945c2.648 3.355 5.472 6.707 8.12 10.238.708 1.063 1.766 2.121 2.294 3.711-1.059 0-1.766-.883-2.469-1.414-3.004-2.297-6.004-4.59-9.184-6.531-3.18-1.945-6.18-3.711-9.359-5.297-13.594-6.887-27.367-11.832-41.668-16.422-2.473-.883-5.121-1.59-7.594-2.473a452 452 0 0 0-7.77-2.12c-2.648-.704-5.12-1.235-7.593-1.766-2.648-.528-5.117-1.059-7.766-1.586-2.12-.356-4.062-.707-6.18-.531-1.59.175-2.827.53-3.003 2.472s1.058 3.356 2.472 4.766c1.41 1.414 2.825 2.648 4.415 3.71 1.59 1.235 3 2.294 4.59 3.352 9.359 6.36 18.187 11.125 27.015 14.832 2.297.883 4.414 1.766 6.535 2.649 2.117.707 4.59 1.59 6.707 2.297 4.414 1.414 9.184 2.472 13.598 3.53 3.707.708 7.594 1.59 11.3 2.474 3.708 1.058 7.59 2.117 11.301 3.53 10.063 3.884 19.954 9.536 28.957 19.247a25 25 0 0 1 3.707 5.473c4.946 10.418 9.536 21.367 13.418 33.02a512 512 0 0 1 10.598 36.194c4.234 16.954 7.59 34.434 11.121 51.739 1.766 8.652 3.004 17.656 3.711 26.66 1.235 13.949 1.942 27.722 2.824 41.672 1.41 20.304 1.766 40.258.352 60.21-.352 5.473-.527 11.126-.707 16.598-.176 3.176-.176 6.532.531 9.711 1.942 8.828 7.414 11.828 10.95 5.828 1.234-2.12 1.94-4.77 2.648-7.593.703-3.887 1.234-7.946 1.41-12.184.883-14.125.883-28.43.355-42.73-.707-16.774-1.945-33.547-3.355-50.325-.883-9.886-1.059-19.422-.883-29.133 0-1.59.176-3.18.527-4.59 2.829-10.242 5.122-21.011 7.418-31.784 3.356-15.715 6.707-31.25 10.594-46.438 4.766-18.89 10.063-37.078 14.48-56.324 4.766-20.66 8.122-43.082 7.59-67.98-.175-4.415-.351-8.829-.707-13.243-.527-4.414-1.058-9.004-1.765-13.773a32.7 32.7 0 0 0-1.766-6.532c-1.234-2.828-2.648-3.886-3.707-2.828-.531.532-.707 1.414-.883 2.297-.175 1.766-.53 3.531-.707 5.473-1.765 19.426-5.472 37.789-11.476 53.504-1.59 4.234-3.176 8.648-4.946 12.886-1.765 4.239-3.351 8.653-4.94 13.067-9.185 25.426-15.188 52.973-16.071 85.812-.176 7.418 0 14.832 0 22.426 0 .883.18 1.942-.528 2.473-.175-.707-.355-1.235-.355-1.59-2.117-14.656-4.414-29.133-7.063-43.613-2.648-14.477-5.472-28.782-8.828-42.907-.707-2.472-.527-4.414 0-6.53 4.063-16.071 7.594-32.493 9.711-49.442 1.59-12.008 2.473-24.192 2.649-36.727 0-12.535-.703-25.25-2.117-38.316-1.235-9.36-1.59-6.531 1.765-11.828 4.063-6.535 8.297-12.715 13.598-17.305 4.234-3.707 8.472-7.418 12.71-10.95 3.708-3.175 6.712-7.062 9.005-11.652 1.062-2.296 2.12-4.77 2.828-7.418a63 63 0 0 0 1.586-8.296c.707-5.829.707-12.536.18-19.422-.356-3.532-.883-7.242-1.415-10.95-.707-3.707-1.414-7.59-2.472-11.476-.352-1.59-.883-3.356-1.766-5.121-2.117-4.059-4.766-5.824-5.648-3.883-.707 1.41-1.059 3.356-1.414 5.121-.528 4.059-1.942 7.414-3.18 10.77-1.235 3.355-2.649 6.71-4.059 9.886-2.824 6.36-6.004 12.54-9.71 18.364-3.712 6.004-7.063 12.359-9.891 19.425-2.649 7.063-4.942 14.829-6 23.48 0 .532 0 1.24-.883.708-.707-1.766-.883-3.176-1.238-4.766-1.059-4.945-2.293-10.066-3.532-15.007-1.234-4.946-2.648-10.067-4.062-15.012-.703-2.469-1.586-4.942-2.293-7.414-.356-1.239-.707-2.473-1.238-3.887l-1.586-4.059c-1.063-2.824-2.297-5.472-3.356-8.3l-1.765-4.239c-.532-1.41-1.239-2.824-1.942-4.058-10.242-22.25-24.015-44.145-41.847-64.801-7.594-8.828-15.188-17.48-24.723-25.426-1.059-.883-1.942-1.945-3.531-2.472 0 .882 1.238 1.94 1.941 2.824 3.004 3.707 6.004 7.414 9.184 11.3 3.18 3.708 6.53 7.594 9.535 11.477 12.36 15.008 22.777 30.899 31.605 46.969 2.121 4.058 4.414 8.12 6.356 12.008 1.945 4.058 3.886 8.12 5.652 12.18 1.941 4.062 3.356 8.124 4.941 12.183l2.297 6.18 1.059 3.004c.355 1.058.531 1.94.883 2.824 7.242 25.074 12.715 50.324 14.656 75.043 0 1.234.531 2.648-.352 3.18-.882-.708-1.062-1.766-1.59-2.829-1.058-2.468-2.12-4.941-3.18-7.238-7.589-16.95-16.948-32.664-27.015-47.496-2.648-3.707-4.941-7.242-8.12-11.3l-4.415-5.829a72 72 0 0 0-4.59-5.648 284 284 0 0 0-9.71-10.774c-3.356-3.531-6.887-6.883-10.419-10.238a273 273 0 0 0-37.433-28.606c-13.242-8.12-27.016-15.007-41.14-20.484-18.188-7.062-36.552-11.652-54.915-14.125-2.648-.352-4.414-1.234-6.355-2.824-4.063-3.356-8.125-6.887-12.184-10.063-4.062-3.18-8.125-6.535-12.36-9.715-1.238-.882-2.296-1.941-2.827-3-3.708-8.476-6.708-16.949-7.063-25.074-.176-5.297.176-10.594-.352-16.066a60.7 60.7 0 0 0-3.355-16.246c-1.414-3.707-3.18-7.414-5.473-10.946-2.297-3.53-5.12-7.238-8.125-10.773-6.882-8.121-14.3-15.89-24.187-23.48-1.414-1.063-3.004-2.122-5.121-2.829-3.356-1.234-7.239-.882-8.301.883-.883 1.238-.352 2.473 0 3.711 1.945 5.824 3.887 11.477 5.828 17.3l5.297 15.895c1.766 5.297 3.707 10.594 6.004 16.067 2.297 5.472 5.12 10.77 8.297 16.066 3.355 5.297 7.066 10.774 11.656 16.07.527.528 1.059 1.06.883 2.118-2.649-1.059-4.238-2.293-5.828-3.356m132.78 152.028c-26.483-11.301-52.616-20.657-79.632-28.075-.707-.175-1.414-.351-1.941-.527-.176 0-.356-.18-.532-.355 0-.528.707-.352 1.059-.176 14.305 2.824 28.606 5.297 42.73 10.77l6.18 2.296 6.004 2.824c1.942.883 4.063 1.766 6.004 2.825l6.004 3.004c4.766 2.296 9.18 4.765 13.95 7.062a22 22 0 0 1 2.116 1.234c2.297.883 4.594 1.946 6.887 3.004 2.297 1.235 4.59 2.293 6.711 3.707 3.176 1.942 6.531 3.887 9.71 6.004l9.536 6.532c1.234.882 2.473 1.765 3 3.355-.703.355-1.234-.352-1.766-.707-2.472-2.117-5.12-4.059-7.59-5.824l-3.886-2.824-4.059-2.473c-2.652-1.59-5.3-3.356-7.949-4.77l-8.121-4.414c-.883-.351-1.59-.883-2.473-1.59-.703-.351-1.41-.527-1.941-.882m62.86-32.84c-2.297-1.766-4.414-3.531-6.71-5.121l-6.887-4.766c-4.414-3.18-9.18-5.828-13.946-8.476-1.765-.883-3.355-1.766-5.12-2.649-1.766-.707-3.532-1.59-5.122-2.297a116 116 0 0 0-10.066-3.707c-3.356-.883-6.707-1.59-9.887-2.297-1.59-.351-3.18-.527-4.766-.707-1.59-.176-3.18-.176-4.77-.351-2.472 0-4.765 0-6.886.351-1.058.18-2.117.356-2.648 1.063-1.059 1.058-.352 2.293 1.59 3.707 1.765 1.234 3.53 1.941 5.296 2.472 4.063 1.41 7.77 2.649 11.832 3.707 14.477 4.239 29.309 9.36 43.61 16.774l4.238 2.121 4.063 2.293c2.824 1.59 5.472 3.18 8.296 4.945 2.829 1.766 5.477 3.707 8.125 5.649 2.649 1.945 5.473 3.886 8.122 6.18 2.296 1.945 4.414 4.062 6.355 6.71l3.004 3.887q1.325 1.85 2.648 3.707l5.121 7.414c3.356 5.121 6.532 10.242 9.711 15.363 6.18 10.418 12.008 21.364 17.125 32.664 1.239 2.649 2.297 5.477 3.532 8.125l1.765 4.06 1.59 4.237c1.414 3.356 1.942 6.18 1.942 9.184-.176 16.418-1.942 32.488-4.415 48.027-.527 3.707-1.234 7.414-1.765 11.121-.703 3.707-1.41 7.418-1.942 11.125-.175.883-.351 1.59-.527 2.473-.18.707-.18 2.117-.707 1.941-.883 0-1.059-1.414-1.414-2.472a289 289 0 0 0-13.242-34.43c-6.531-14.305-14.125-28.074-22.602-41.496-7.238-11.652-14.832-22.953-22.777-34.43-3.883-5.652-7.945-11.3-12.008-17.129-1.941-2.824-4.058-5.472-6-8.12l-3.004-4.063-3.18-3.883c-11.476-14.3-22.777-28.074-34.605-41.316-11.832-13.246-24.016-26.133-37.258-38.493a1120 1120 0 0 0-30.898-27.722c-.883-.883-2.649-1.766-2.297-2.473.355-.707 2.297-.176 3.707.176 35.14 6.535 70.277 21.894 101.176 45.203l6.004 4.59c1.941 1.59 3.886 3.18 5.652 4.77l5.648 4.94c1.942 1.59 3.707 3.532 5.473 5.298 1.238 1.238 2.649 2.472 4.063 4.414-1.766 0-3.004-1.235-4.239-2.293m89.7 304.23c-.532-15.363-.356-30.722.882-45.554 2.117-24.192 7.239-44.848 13.95-64.274 3.175-8.828 6.53-16.95 9.535-25.426 1.941-5.648 4.058-11.476 5.472-17.656 1.59-6.18 2.825-12.535 3.883-19.422.176-.707.356-1.414.531-2.472 1.059 2.117.883 3.355.883 4.765.352 7.594 0 14.832-.883 21.543-1.941 14.125-4.59 28.074-7.418 41.496a502 502 0 0 1-10.418 39.02c-6.53 21.012-12.003 42.73-15.183 66.746-.176 1.234-.176 2.469-.883 3.531-.351-1.062-.351-1.765-.351-2.297m-178.16-326.832c-12.184-9.36-24.9-18.012-38.317-25.781-13.418-7.766-27.367-14.652-42.024-20.48-.355-.176-.707-.176-1.058-.352-.707-.356-1.59-.531-1.59-1.063 0-.527.883-.527 1.59-.527h2.117c4.414.176 8.828.352 13.418.707 4.414.352 8.832.883 13.422 1.234 2.473.176 4.238 1.06 6.004 2.473 16.066 13.418 31.605 27.367 46.613 42.375.883.883 1.59 1.59 2.297 2.473.176.176.176.355.352.707-1.235-.352-1.942-1.059-2.825-1.766m216.476 179.043c-.707 12.711-2.297 24.719-4.238 36.195-2.121 11.477-4.77 22.602-7.594 33.372-6.711 25.43-13.418 50.675-18.895 77.34-1.586 7.769-3.351 15.363-4.941 22.953-.176 1.058-.356 2.472-1.238 3.003-.528-1.945-.352-3.71-.176-5.296 2.297-18.012 5.121-35.493 8.828-52.266 3.531-16.773 7.945-33.02 13.066-48.734 6.711-20.66 11.832-43.614 14.305-68.508.352-5.121.703-10.598.703-15.895v-2.469q.27 2.65.531 5.297c0 1.766.176 3.356.176 5.121-.351 3.352-.351 6.707-.527 9.887M267.207 57.563c-5.121.707-10.242 1.41-15.187 2.472-5.118 1.059-10.063 2.293-15.008 3.531-13.594 3.883-27.016 8.121-40.258 13.418-15.008 5.653-29.488 12.36-43.613 19.602-5.297 2.824-10.77 5.648-16.067 8.648-1.414.883-3.004 1.946-4.59 2.121.883-1.414 2.293-2.296 3.532-3.18 9.18-6.53 18.363-13.066 28.425-18.538l4.414-2.473 4.594-2.293 9.18-4.594c3-1.59 6.18-2.824 9.36-4.058 3.175-1.239 6.355-2.649 9.534-3.711 23.66-8.473 48.204-13.594 71.688-13.242 1.941 0 3.883.175 6.004.355.176 0 .351.176.527.352-4.59.882-8.652.882-12.535 1.59m209.234 237.84c-18.539-.883-36.55-.883-53.675.35l-2.473.18-2.473.176c-1.59.176-3.355.176-4.941.176-.18 0-.356-.176-.356-.351 1.59-1.59 5.297-3.356 10.77-4.77 2.652-.707 5.652-1.234 9.008-1.766 1.59-.175 3.355-.527 5.12-.527 1.767-.18 3.532-.18 5.298-.18h5.472c1.766 0 3.532.18 5.297.356l5.297.527c1.766.18 3.356.531 4.945.883 3.176.707 6.004 1.414 8.297 2.121 2.473.883 4.239 1.766 5.477 2.649-.356.175-.707.175-1.063.175M342.777 17.304c10.418 12.008 17.13 24.367 20.485 36.902 1.59 6.004 3.883 12.008 6.355 18.188 2.473 6.003 5.121 12.183 7.945 18.363.356.707.532 1.41.883 2.117 0 .176-.175.176-.351.531-1.59-.883-2.121-1.765-2.828-2.648-1.766-2.297-3.532-4.414-5.297-6.711-1.766-2.117-3.352-4.238-4.766-6.531-3-4.414-5.648-8.653-8.121-13.067-4.945-9.183-8.3-18.363-11.125-27.547-2.117-6.53-4.062-13.242-6.355-19.773-.18-.707-.532-1.414.351-2.473 1.59.883 2.121 1.766 2.824 2.649m301.055 233.777c4.414-9.535 9.711-17.832 14.477-26.836 2.648-5.121 5.12-10.418 7.066-16.246 1.941-5.828 3.531-12.184 4.414-18.715.176-.883 0-1.945.703-2.297.883 1.059.707 1.59.883 2.297.531 4.414.883 8.828 1.063 12.887q.264 6.091-.532 11.656c-.883 7.414-2.824 13.95-6.18 19.246-3.53 5.473-8.12 9.535-12.89 13.418-3 2.297-5.824 4.59-8.652 7.418-.176.176-.528.352-1.059.703-.176-2.117.352-2.648.707-3.531m-158.031 98c4.238.883 8.297 1.766 12.36 2.824 4.237 1.059 8.12 2.293 12.359 3.531 14.656 4.766 28.957 9.711 42.906 16.774 1.59.707 3.004 1.766 4.77 2.648-.532.352-1.239.176-1.59 0-3.18-1.234-6.711-2.296-10.063-3.18l-10.066-2.648c-2.297-.527-4.414-1.234-6.532-1.941-2.297-.707-4.418-1.41-6.71-2.297l-3.532-1.41-3.707-1.414-7.242-2.649c-4.942-1.765-10.063-3.53-15.008-5.297-3.531-1.234-6.71-2.824-10.242-4.414-.527-.175-.883-.351-1.41-1.234.883 0 2.293.527 3.707.707m180.633-162.977c-1.059 6.004-3.18 10.95-4.414 16.95-1.59 7.242-3.887 13.597-6.711 19.601s-6.004 11.653-9.184 17.125c-3.531 6.36-6.18 13.774-9.355 20.66-.356.707-.356 1.766-1.415 1.942-.707-1.41-.351-2.117-.175-3 .883-5.473 1.765-10.594 3.18-15.54q1.852-7.416 4.765-13.773c3.707-8.297 8.477-15.36 12.535-23.304 3.531-6.711 6.535-13.95 9.36-21.368.355-1.234.882-2.293 1.414-3.53.527 2.12.175 3.179 0 4.237m-153.086 57.208c-.707.53-1.59-.176-2.297-.528-15.184-7.945-30.371-15.008-45.91-22.07a74 74 0 0 0-7.946-3.18 63 63 0 0 0-8.12-2.648l-8.122-2.297c-2.648-.707-5.476-1.235-8.125-1.942-12.183-2.824-24.543-5.296-36.726-6.53l-1.059-.18-.176-.528c9.711.352 19.778 1.059 29.84 3 5.121.883 10.066 2.121 15.184 3.356 2.648.53 4.945 1.414 7.593 2.117 2.473.707 5.121 1.414 7.594 2.297 4.942 1.765 10.063 3.53 15.008 5.652q3.71 1.588 7.414 3.176l7.418 3.531c1.234.531 2.473 1.238 3.707 1.766l3.531 1.945 7.242 4.059 7.063 4.414c2.293 1.59 4.766 3.004 6.887 4.59m44.672 137.195c-3.887-1.059-7.594-2.117-11.301-2.824-3.711-.883-7.594-1.59-11.301-2.473-7.594-1.586-14.832-3.883-22.07-6.883-3.711-1.414-7.418-3.18-10.95-4.945-1.941-.883-3.882-1.942-5.648-3.004-1.945-1.059-3.71-2.117-5.652-3.176-.707-.355-1.414-.707-1.942-1.414.176-.707.707-.176 1.059-.176a756 756 0 0 1 33.902 12.184c7.594 3 15.184 4.945 22.778 7.238 3.53 1.059 6.71 2.297 10.242 3.887.883.351 1.586.703 2.468 1.586-.527.531-1.058.18-1.585 0M377.918 80.34c-1.59-.883-1.414-1.59-1.77-2.473-3.53-8.297-6-16.422-8.12-24.543-1.59-6.004-3.883-12.183-7.063-18.187-3.18-6.18-7.238-12.008-12.36-17.832-.707-.883-1.234-1.766-1.94-2.473 0-.176.175-.176.526-.707 12.54 10.594 21.192 21.895 26.309 32.844 5.3 11.3 6.71 22.422 4.418 33.37m111.062 97.465c1.41 0 2.825 0 4.235.18q2.122.262 4.238.527c2.828.355 5.828 1.062 8.828 1.765 3.004.707 6.004 1.766 9.184 3.004 3 1.235 6.18 2.473 9.36 4.059 2.823 1.414 5.648 3.004 8.652 4.77 1.41.882 2.824 1.59 4.234 2.648l4.238 2.824c1.059.707 2.121 1.414 3.18 2.648-.883.176-1.766-.527-2.649-.882-3.707-1.766-7.418-3.532-11.125-5.121s-7.414-3-11.125-4.239c-7.59-2.468-14.832-4.941-22.421-6.707-3.004-.707-6.004-1.765-9.184-2.648-1.059-.356-2.117-.531-3.707-1.59.707-1.238 2.297-1.238 4.062-1.238m0 0"/></svg>