<svg xmlns="http://www.w3.org/2000/svg" xmlns:xlink="http://www.w3.org/1999/xlink" width="962" zoomAndPan="magnify" viewBox="0 0 721.5 442.499987" height="590" preserveAspectRatio="xMidYMid meet" version="1.0"><defs><g/><clipPath id="8a0b35dc72"><path d="M 209.761719 140.484375 L 510.917969 140.484375 L 510.917969 292 L 209.761719 292 Z M 209.761719 140.484375 " clip-rule="nonzero"/></clipPath><clipPath id="90aea26c94"><path d="M 209.761719 291 L 510.917969 291 L 510.917969 441.644531 L 209.761719 441.644531 Z M 209.761719 291 " clip-rule="nonzero"/></clipPath></defs><path fill="#1f5014" d="M 467.007812 44.613281 C 467.007812 44.613281 430.09375 43.523438 397.910156 60.863281 C 387.496094 25.605469 360.398438 0.0742188 360.398438 0.0742188 C 360.398438 0.0742188 333.304688 25.605469 322.890625 60.863281 C 290.707031 43.53125 253.792969 44.613281 253.792969 44.613281 C 253.792969 44.613281 252.09375 101.628906 286.214844 135.75 C 311.136719 160.667969 339.609375 175.113281 359.476562 174.78125 C 359.785156 174.796875 360.089844 174.804688 360.398438 174.804688 C 360.707031 174.804688 361.011719 174.804688 361.320312 174.78125 C 381.1875 175.113281 409.664062 160.667969 434.582031 135.75 C 468.703125 101.628906 467.007812 44.613281 467.007812 44.613281 Z M 467.007812 44.613281 " fill-opacity="1" fill-rule="nonzero"/><g clip-path="url(#8a0b35dc72)"><path fill="#f8f7ef" d="M 511.035156 140.484375 C 511.035156 223.675781 443.589844 291.121094 360.398438 291.121094 C 277.207031 291.121094 209.761719 223.675781 209.761719 140.484375 Z M 511.035156 140.484375 " fill-opacity="1" fill-rule="nonzero"/></g><g clip-path="url(#90aea26c94)"><path fill="#919f88" d="M 511.035156 441.757812 L 435.71875 441.757812 C 435.71875 400.164062 401.996094 366.441406 360.398438 366.441406 C 318.800781 366.441406 285.078125 400.164062 285.078125 441.757812 L 209.761719 441.757812 C 209.761719 358.566406 277.207031 291.121094 360.398438 291.121094 C 443.589844 291.121094 511.035156 358.566406 511.035156 441.757812 Z M 511.035156 441.757812 " fill-opacity="1" fill-rule="nonzero"/></g><g fill="#272727" fill-opacity="1"><g transform="translate(316.450924, 256.808602)"><g><path d="M -5.4375 -23.09375 C -6.976562 -23.09375 -7.925781 -23.816406 -8.28125 -25.265625 C -8.375 -25.441406 -8.441406 -25.617188 -8.484375 -25.796875 C -8.535156 -25.984375 -8.5625 -26.171875 -8.5625 -26.359375 C -8.5625 -26.804688 -8.601562 -27.164062 -8.6875 -27.4375 C -8.78125 -29.15625 -8.664062 -30.851562 -8.34375 -32.53125 C -8.03125 -34.207031 -7.648438 -35.863281 -7.203125 -37.5 C -6.742188 -38.582031 -6.128906 -40.03125 -5.359375 -41.84375 C -4.597656 -43.65625 -3.71875 -45.554688 -2.71875 -47.546875 C -1.71875 -49.535156 -0.695312 -51.320312 0.34375 -52.90625 C 1.382812 -54.488281 2.359375 -55.597656 3.265625 -56.234375 C 3.441406 -56.421875 3.617188 -56.515625 3.796875 -56.515625 C 3.984375 -56.515625 4.164062 -56.421875 4.34375 -56.234375 C 4.882812 -55.878906 5.066406 -55.472656 4.890625 -55.015625 C 4.710938 -54.566406 4.484375 -54.09375 4.203125 -53.59375 C 3.929688 -53.09375 3.570312 -52.707031 3.125 -52.4375 C 2.394531 -51.976562 1.804688 -51.34375 1.359375 -50.53125 C -0.722656 -47.09375 -2.535156 -43.359375 -4.078125 -39.328125 C -5.617188 -35.296875 -6.390625 -31.242188 -6.390625 -27.171875 C -6.203125 -26.898438 -6.203125 -26.628906 -6.390625 -26.359375 C -6.390625 -26.085938 -6.160156 -25.859375 -5.703125 -25.671875 C -5.253906 -25.492188 -4.984375 -25.585938 -4.890625 -25.953125 C -4.796875 -26.128906 -4.703125 -26.285156 -4.609375 -26.421875 C -4.523438 -26.554688 -4.4375 -26.671875 -4.34375 -26.765625 C -3.351562 -27.847656 -2.539062 -29.066406 -1.90625 -30.421875 C -1.445312 -31.328125 -0.945312 -32.210938 -0.40625 -33.078125 C 0.132812 -33.941406 0.632812 -34.828125 1.09375 -35.734375 C 1.539062 -36.628906 2.015625 -37.507812 2.515625 -38.375 C 3.015625 -39.238281 3.488281 -40.125 3.9375 -41.03125 L 5.4375 -43.46875 C 5.613281 -43.925781 5.929688 -44.15625 6.390625 -44.15625 C 7.109375 -44.15625 7.515625 -43.835938 7.609375 -43.203125 C 7.703125 -42.929688 7.75 -42.382812 7.75 -41.5625 C 7.65625 -41.019531 7.5625 -40.453125 7.46875 -39.859375 C 7.375 -39.273438 7.328125 -38.710938 7.328125 -38.171875 C 7.242188 -37.441406 7.222656 -36.691406 7.265625 -35.921875 C 7.304688 -35.160156 7.46875 -34.414062 7.75 -33.6875 C 7.925781 -33.238281 8.238281 -33.015625 8.6875 -33.015625 C 8.6875 -33.015625 8.960938 -33.101562 9.515625 -33.28125 C 9.785156 -33.457031 10.078125 -33.679688 10.390625 -33.953125 C 10.710938 -34.234375 10.960938 -34.507812 11.140625 -34.78125 C 12.410156 -37.21875 13.359375 -39.703125 13.984375 -42.234375 C 14.617188 -44.773438 15.164062 -47.359375 15.625 -49.984375 C 16.070312 -51.617188 15.570312 -52.890625 14.125 -53.796875 C 13.851562 -53.972656 13.582031 -54.21875 13.3125 -54.53125 C 13.039062 -54.851562 12.816406 -55.148438 12.640625 -55.421875 C 12.359375 -55.785156 12.3125 -56.421875 12.5 -57.328125 C 12.769531 -58.328125 13.40625 -58.828125 14.40625 -58.828125 C 15.394531 -58.828125 16.09375 -58.414062 16.5 -57.59375 C 16.90625 -56.78125 17.203125 -55.96875 17.390625 -55.15625 C 17.660156 -54.34375 17.882812 -53.890625 18.0625 -53.796875 C 18.25 -53.703125 18.796875 -53.609375 19.703125 -53.515625 C 22.054688 -53.515625 24.140625 -53.832031 25.953125 -54.46875 C 26.765625 -54.832031 27.441406 -55.015625 27.984375 -55.015625 C 28.347656 -55.015625 28.640625 -54.988281 28.859375 -54.9375 C 29.085938 -54.894531 29.25 -54.648438 29.34375 -54.203125 C 29.34375 -53.566406 28.707031 -53.085938 27.4375 -52.765625 C 26.164062 -52.453125 24.785156 -52.25 23.296875 -52.15625 C 21.804688 -52.070312 20.695312 -52.03125 19.96875 -52.03125 C 19.0625 -52.03125 18.425781 -51.847656 18.0625 -51.484375 C 17.425781 -51.117188 17.15625 -50.578125 17.25 -49.859375 C 17.34375 -49.492188 17.363281 -49.128906 17.3125 -48.765625 C 17.269531 -48.398438 17.203125 -48.039062 17.109375 -47.6875 C 16.835938 -45.957031 16.519531 -44.273438 16.15625 -42.640625 C 15.800781 -41.015625 15.304688 -39.390625 14.671875 -37.765625 C 14.398438 -36.859375 14.082031 -36.019531 13.71875 -35.25 C 13.351562 -34.476562 12.851562 -33.734375 12.21875 -33.015625 C 11.5 -32.015625 10.503906 -31.515625 9.234375 -31.515625 C 7.785156 -31.515625 6.703125 -32.332031 5.984375 -33.96875 C 5.890625 -34.238281 5.75 -34.734375 5.5625 -35.453125 C 5.476562 -35.722656 5.390625 -35.992188 5.296875 -36.265625 C 5.203125 -36.535156 5.113281 -36.851562 5.03125 -37.21875 C 4.488281 -36.945312 4.125 -36.628906 3.9375 -36.265625 C 3.757812 -35.910156 3.578125 -35.503906 3.390625 -35.046875 C 3.035156 -34.410156 2.695312 -33.820312 2.375 -33.28125 C 2.0625 -32.738281 1.769531 -32.195312 1.5 -31.65625 C 1.132812 -31.019531 0.816406 -30.429688 0.546875 -29.890625 C 0.273438 -29.347656 -0.0390625 -28.757812 -0.40625 -28.125 C -0.945312 -27.300781 -1.46875 -26.550781 -1.96875 -25.875 C -2.46875 -25.195312 -2.941406 -24.585938 -3.390625 -24.046875 C -3.941406 -23.410156 -4.625 -23.09375 -5.4375 -23.09375 Z M 15.34375 -54.609375 C 15.4375 -54.609375 15.578125 -54.832031 15.765625 -55.28125 C 15.765625 -55.375 15.765625 -55.46875 15.765625 -55.5625 C 15.765625 -55.65625 15.765625 -55.742188 15.765625 -55.828125 C 15.671875 -55.921875 15.625 -56.054688 15.625 -56.234375 C 15.53125 -56.597656 15.300781 -56.78125 14.9375 -56.78125 C 14.851562 -56.6875 14.765625 -56.640625 14.671875 -56.640625 C 14.578125 -56.554688 14.53125 -56.488281 14.53125 -56.4375 C 14.53125 -56.394531 14.488281 -56.328125 14.40625 -56.234375 C 14.21875 -55.960938 14.21875 -55.601562 14.40625 -55.15625 C 14.757812 -54.695312 15.070312 -54.515625 15.34375 -54.609375 Z M 15.34375 -54.609375 "/></g></g></g><g fill="#272727" fill-opacity="1"><g transform="translate(342.668539, 256.808602)"><g><path d="M 0.140625 -33.96875 C -2.304688 -33.96875 -3.757812 -35.234375 -4.21875 -37.765625 C -4.394531 -38.847656 -4.394531 -39.890625 -4.21875 -40.890625 C -3.757812 -43.785156 -2.894531 -46.5 -1.625 -49.03125 C -0.363281 -51.570312 1.128906 -54.019531 2.859375 -56.375 C 3.210938 -56.820312 3.570312 -57.003906 3.9375 -56.921875 C 4.125 -56.921875 4.351562 -56.71875 4.625 -56.3125 C 4.894531 -55.90625 4.9375 -55.609375 4.75 -55.421875 C 4.570312 -55.054688 4.414062 -54.738281 4.28125 -54.46875 C 4.144531 -54.195312 3.984375 -53.972656 3.796875 -53.796875 C 2.441406 -51.984375 1.332031 -50.054688 0.46875 -48.015625 C -0.382812 -45.984375 -1.128906 -43.878906 -1.765625 -41.703125 C -2.035156 -40.078125 -2.125 -38.628906 -2.03125 -37.359375 C -2.03125 -36.453125 -1.625 -36 -0.8125 -36 L -0.265625 -36.140625 C 0.546875 -36.222656 1.445312 -36.71875 2.4375 -37.625 C 4.976562 -39.164062 7.109375 -40.929688 8.828125 -42.921875 L 17.796875 -52.4375 C 17.972656 -52.613281 18.148438 -52.816406 18.328125 -53.046875 C 18.515625 -53.273438 18.695312 -53.476562 18.875 -53.65625 C 19.0625 -53.84375 19.242188 -54.023438 19.421875 -54.203125 C 19.609375 -54.378906 19.789062 -54.5625 19.96875 -54.75 C 20.144531 -54.925781 20.328125 -55.015625 20.515625 -55.015625 C 20.878906 -55.015625 21.128906 -54.851562 21.265625 -54.53125 C 21.398438 -54.21875 21.507812 -53.925781 21.59375 -53.65625 C 21.59375 -53.207031 21.023438 -52.328125 19.890625 -51.015625 C 18.765625 -49.703125 17.363281 -48.207031 15.6875 -46.53125 C 14.007812 -44.851562 12.3125 -43.195312 10.59375 -41.5625 C 8.875 -39.9375 7.378906 -38.554688 6.109375 -37.421875 C 4.847656 -36.296875 4.125 -35.640625 3.9375 -35.453125 C 3.757812 -35.359375 3.601562 -35.265625 3.46875 -35.171875 C 3.332031 -35.085938 3.171875 -35 2.984375 -34.90625 C 2.898438 -34.820312 2.765625 -34.734375 2.578125 -34.640625 C 2.398438 -34.546875 2.21875 -34.457031 2.03125 -34.375 C 1.40625 -34.101562 0.773438 -33.96875 0.140625 -33.96875 Z M 5.84375 -60.59375 C 5.382812 -61.039062 5.203125 -61.398438 5.296875 -61.671875 L 5.703125 -62.484375 C 6.066406 -63.023438 6.40625 -63.546875 6.71875 -64.046875 C 7.039062 -64.546875 7.335938 -65.023438 7.609375 -65.484375 C 7.785156 -65.835938 7.988281 -66.148438 8.21875 -66.421875 C 8.445312 -66.691406 8.648438 -67.007812 8.828125 -67.375 C 9.003906 -67.738281 9.179688 -68.054688 9.359375 -68.328125 C 9.546875 -68.597656 9.734375 -68.914062 9.921875 -69.28125 C 10.003906 -69.644531 10.226562 -69.828125 10.59375 -69.828125 C 10.78125 -69.828125 10.914062 -69.78125 11 -69.6875 C 11.1875 -69.507812 11.28125 -69.421875 11.28125 -69.421875 C 11.28125 -69.234375 11.320312 -69.097656 11.40625 -69.015625 C 11.40625 -68.460938 11.363281 -68.144531 11.28125 -68.0625 C 10.550781 -66.789062 9.820312 -65.539062 9.09375 -64.3125 C 8.375 -63.09375 7.5625 -61.941406 6.65625 -60.859375 C 6.382812 -60.585938 6.113281 -60.5 5.84375 -60.59375 Z M 5.84375 -60.59375 "/></g></g></g><g fill="#272727" fill-opacity="1"><g transform="translate(361.143123, 256.808602)"><g><path d="M 3.390625 -2.3125 C 2.671875 -2.3125 2.082031 -2.535156 1.625 -2.984375 C 1.082031 -3.441406 0.695312 -3.941406 0.46875 -4.484375 C 0.25 -5.023438 0.046875 -5.613281 -0.140625 -6.25 C -0.492188 -7.519531 -0.785156 -8.71875 -1.015625 -9.84375 C -1.242188 -10.976562 -1.445312 -12.179688 -1.625 -13.453125 C -2.082031 -17.523438 -2.285156 -21.550781 -2.234375 -25.53125 C -2.191406 -29.519531 -2.035156 -33.550781 -1.765625 -37.625 C -1.128906 -44.144531 -0.179688 -50.394531 1.078125 -56.375 C 2.347656 -62.351562 3.890625 -68.46875 5.703125 -74.71875 C 6.160156 -75.53125 6.253906 -76.160156 5.984375 -76.609375 C 5.523438 -77.066406 4.367188 -77.40625 2.515625 -77.625 C 0.660156 -77.851562 -1.257812 -78.015625 -3.25 -78.109375 C -5.25 -78.203125 -6.609375 -78.25 -7.328125 -78.25 C -7.691406 -78.25 -8.664062 -78.222656 -10.25 -78.171875 C -11.84375 -78.128906 -13.722656 -78.015625 -15.890625 -77.828125 C -18.066406 -77.648438 -20.195312 -77.398438 -22.28125 -77.078125 C -24.363281 -76.765625 -26.101562 -76.335938 -27.5 -75.796875 C -28.90625 -75.253906 -29.65625 -74.53125 -29.75 -73.625 C -29.84375 -73.082031 -30.25 -72.8125 -30.96875 -72.8125 C -32.144531 -72.8125 -32.78125 -73.265625 -32.875 -74.171875 C -33.144531 -74.890625 -32.960938 -75.429688 -32.328125 -75.796875 C -30.429688 -77.066406 -27.941406 -78.0625 -24.859375 -78.78125 C -21.773438 -79.507812 -18.625 -80.007812 -15.40625 -80.28125 C -12.195312 -80.550781 -9.460938 -80.6875 -7.203125 -80.6875 C -5.296875 -80.6875 -3.347656 -80.59375 -1.359375 -80.40625 C 0.628906 -80.226562 2.664062 -79.960938 4.75 -79.609375 C 5.019531 -79.515625 5.519531 -79.46875 6.25 -79.46875 C 6.789062 -79.46875 7.175781 -79.625 7.40625 -79.9375 C 7.632812 -80.257812 7.925781 -80.828125 8.28125 -81.640625 C 8.738281 -82.910156 9.488281 -84.675781 10.53125 -86.9375 C 11.570312 -89.207031 12.75 -91.519531 14.0625 -93.875 C 15.375 -96.226562 16.707031 -98.21875 18.0625 -99.84375 C 19.425781 -101.476562 20.695312 -102.296875 21.875 -102.296875 C 22.6875 -102.296875 23.226562 -101.882812 23.5 -101.0625 C 23.957031 -100.25 24.09375 -99.34375 23.90625 -98.34375 C 23.90625 -97.988281 23.878906 -97.601562 23.828125 -97.1875 C 23.785156 -96.78125 23.722656 -96.398438 23.640625 -96.046875 C 23.546875 -95.679688 23.429688 -95.296875 23.296875 -94.890625 C 23.160156 -94.484375 23.046875 -94.097656 22.953125 -93.734375 C 22.234375 -91.554688 21.460938 -89.445312 20.640625 -87.40625 C 19.828125 -85.375 18.96875 -83.316406 18.0625 -81.234375 C 17.976562 -81.054688 17.890625 -80.851562 17.796875 -80.625 C 17.703125 -80.394531 17.613281 -80.191406 17.53125 -80.015625 C 17.34375 -79.742188 17.160156 -79.242188 16.984375 -78.515625 C 17.347656 -78.148438 17.707031 -77.96875 18.0625 -77.96875 C 18.601562 -77.96875 19.015625 -77.925781 19.296875 -77.84375 C 19.835938 -77.65625 20.285156 -77.5625 20.640625 -77.5625 C 21.191406 -77.5625 21.601562 -77.519531 21.875 -77.4375 C 22.863281 -77.34375 23.832031 -77.269531 24.78125 -77.21875 C 25.738281 -77.175781 26.71875 -77.109375 27.71875 -77.015625 C 28.707031 -76.929688 29.675781 -76.84375 30.625 -76.75 C 31.582031 -76.65625 32.554688 -76.566406 33.546875 -76.484375 C 33.828125 -76.390625 34.328125 -76.34375 35.046875 -76.34375 C 35.222656 -76.34375 35.445312 -76.34375 35.71875 -76.34375 C 36 -76.34375 36.226562 -76.34375 36.40625 -76.34375 C 37.945312 -76.34375 39.484375 -76.429688 41.015625 -76.609375 C 42.554688 -76.796875 44.097656 -77.070312 45.640625 -77.4375 C 45.828125 -77.519531 46.054688 -77.609375 46.328125 -77.703125 C 46.597656 -77.796875 46.820312 -77.882812 47 -77.96875 C 47.1875 -78.0625 47.414062 -78.128906 47.6875 -78.171875 C 47.957031 -78.222656 48.179688 -78.289062 48.359375 -78.375 C 48.453125 -78.46875 48.539062 -78.535156 48.625 -78.578125 C 48.71875 -78.628906 48.8125 -78.703125 48.90625 -78.796875 C 49.082031 -78.972656 49.21875 -79.0625 49.3125 -79.0625 C 49.582031 -79.0625 49.765625 -78.925781 49.859375 -78.65625 C 50.492188 -77.476562 50.3125 -76.660156 49.3125 -76.203125 C 47.320312 -75.210938 45.238281 -74.554688 43.0625 -74.234375 C 40.882812 -73.921875 38.710938 -73.765625 36.546875 -73.765625 C 33.640625 -73.765625 30.398438 -73.941406 26.828125 -74.296875 C 23.253906 -74.660156 20.0625 -75.070312 17.25 -75.53125 C 17.070312 -75.53125 16.984375 -75.578125 16.984375 -75.671875 C 16.890625 -75.671875 16.816406 -75.671875 16.765625 -75.671875 C 16.722656 -75.671875 16.660156 -75.671875 16.578125 -75.671875 C 15.671875 -75.671875 15.035156 -75.21875 14.671875 -74.3125 C 13.765625 -72.40625 12.832031 -70.523438 11.875 -68.671875 C 10.925781 -66.816406 10 -64.984375 9.09375 -63.171875 C 8.195312 -61.359375 7.296875 -59.519531 6.390625 -57.65625 C 5.484375 -55.800781 4.578125 -53.925781 3.671875 -52.03125 C 2.765625 -50.125 2.039062 -48.128906 1.5 -46.046875 C 0.769531 -41.523438 0.3125 -37.019531 0.125 -32.53125 C -0.0507812 -28.050781 -0.046875 -23.546875 0.140625 -19.015625 C 0.140625 -18.203125 0.25 -16.726562 0.46875 -14.59375 C 0.695312 -12.46875 1.035156 -10.410156 1.484375 -8.421875 C 1.941406 -6.429688 2.441406 -5.117188 2.984375 -4.484375 C 3.347656 -4.484375 3.578125 -4.617188 3.671875 -4.890625 C 3.847656 -5.253906 3.984375 -5.476562 4.078125 -5.5625 C 4.253906 -5.84375 4.476562 -5.984375 4.75 -5.984375 C 4.84375 -5.984375 4.890625 -5.984375 4.890625 -5.984375 C 4.890625 -5.984375 4.9375 -5.984375 5.03125 -5.984375 C 5.03125 -5.890625 5.070312 -5.84375 5.15625 -5.84375 C 5.613281 -5.65625 5.84375 -5.289062 5.84375 -4.75 C 5.84375 -3.125 5.023438 -2.3125 3.390625 -2.3125 Z M 3.9375 -58.6875 C 4.207031 -58.6875 4.390625 -58.734375 4.484375 -58.828125 L 5.296875 -60.171875 L 12.640625 -75.125 L 12.640625 -75.671875 C 12.546875 -75.753906 12.5 -75.84375 12.5 -75.9375 C 12.5 -76.03125 12.40625 -76.078125 12.21875 -76.078125 L 9.78125 -76.484375 C 9.050781 -76.484375 8.550781 -76.164062 8.28125 -75.53125 C 8.195312 -75.4375 8.15625 -75.320312 8.15625 -75.1875 C 8.15625 -75.050781 8.109375 -74.894531 8.015625 -74.71875 C 7.921875 -74.625 7.875 -74.507812 7.875 -74.375 C 7.875 -74.238281 7.832031 -74.125 7.75 -74.03125 C 7.382812 -73.125 6.882812 -71.582031 6.25 -69.40625 C 5.613281 -67.238281 5.046875 -65.113281 4.546875 -63.03125 C 4.046875 -60.945312 3.796875 -59.585938 3.796875 -58.953125 C 3.890625 -58.867188 3.9375 -58.800781 3.9375 -58.75 C 3.9375 -58.707031 3.9375 -58.6875 3.9375 -58.6875 Z M 13.046875 -78.65625 C 14.035156 -78.65625 14.757812 -79.148438 15.21875 -80.140625 C 16.476562 -82.773438 17.648438 -85.425781 18.734375 -88.09375 C 19.828125 -90.769531 20.828125 -93.507812 21.734375 -96.3125 C 21.910156 -96.851562 22 -97.351562 22 -97.8125 C 22 -97.988281 22 -98.210938 22 -98.484375 C 22 -98.753906 22.046875 -98.984375 22.140625 -99.171875 C 22.140625 -99.441406 22.050781 -99.578125 21.875 -99.578125 C 21.875 -99.578125 21.828125 -99.578125 21.734375 -99.578125 C 21.640625 -99.578125 21.503906 -99.578125 21.328125 -99.578125 C 20.597656 -99.035156 19.9375 -98.398438 19.34375 -97.671875 C 18.757812 -96.941406 18.242188 -96.21875 17.796875 -95.5 C 16.078125 -93.144531 14.628906 -90.722656 13.453125 -88.234375 C 12.273438 -85.742188 11.1875 -83.1875 10.1875 -80.5625 C 9.820312 -79.5625 10.1875 -78.972656 11.28125 -78.796875 C 11.457031 -78.703125 12.046875 -78.65625 13.046875 -78.65625 Z M 13.046875 -78.65625 "/></g></g></g><g fill="#272727" fill-opacity="1"><g transform="translate(372.689741, 256.808602)"><g><path d="M 1.359375 -12.765625 C 0.359375 -12.765625 -0.226562 -12.992188 -0.40625 -13.453125 C -0.5 -13.628906 -0.566406 -13.832031 -0.609375 -14.0625 C -0.648438 -14.289062 -0.71875 -14.492188 -0.8125 -14.671875 C -0.8125 -15.210938 -0.859375 -15.617188 -0.953125 -15.890625 C -1.941406 -21.421875 -2.300781 -26.628906 -2.03125 -31.515625 C -1.488281 -41.296875 0.382812 -51.1875 3.59375 -61.1875 C 6.8125 -71.195312 10.640625 -80.503906 15.078125 -89.109375 C 15.804688 -90.648438 16.914062 -92.570312 18.40625 -94.875 C 19.894531 -97.1875 21.5 -99.40625 23.21875 -101.53125 C 24.945312 -103.664062 26.488281 -105.140625 27.84375 -105.953125 C 28.300781 -106.222656 28.710938 -106.359375 29.078125 -106.359375 C 29.703125 -106.359375 30.195312 -105.90625 30.5625 -105 C 30.832031 -104.28125 30.878906 -103.332031 30.703125 -102.15625 C 30.335938 -100.4375 29.65625 -98.757812 28.65625 -97.125 C 27.476562 -94.863281 26.320312 -92.644531 25.1875 -90.46875 C 24.0625 -88.300781 22.863281 -86.128906 21.59375 -83.953125 C 19.238281 -79.785156 16.929688 -75.640625 14.671875 -71.515625 C 12.410156 -67.398438 10.144531 -63.257812 7.875 -59.09375 C 7.238281 -57.914062 6.625 -56.78125 6.03125 -55.6875 C 5.445312 -54.601562 4.84375 -53.519531 4.21875 -52.4375 C 3.394531 -51.257812 2.734375 -49.445312 2.234375 -47 C 1.742188 -44.550781 1.335938 -41.921875 1.015625 -39.109375 C 0.703125 -36.304688 0.476562 -33.660156 0.34375 -31.171875 C 0.207031 -28.679688 0.140625 -26.757812 0.140625 -25.40625 C 0.140625 -25.132812 0.226562 -25 0.40625 -25 C 0.863281 -25 1.09375 -25.175781 1.09375 -25.53125 C 1.175781 -25.988281 1.265625 -26.421875 1.359375 -26.828125 C 1.453125 -27.234375 1.539062 -27.617188 1.625 -27.984375 C 1.71875 -28.347656 1.785156 -28.734375 1.828125 -29.140625 C 1.878906 -29.546875 1.945312 -29.929688 2.03125 -30.296875 C 2.394531 -32.015625 2.9375 -34.1875 3.65625 -36.8125 C 4.382812 -39.4375 5.269531 -42.148438 6.3125 -44.953125 C 7.351562 -47.765625 8.484375 -50.394531 9.703125 -52.84375 C 10.929688 -55.289062 12.132812 -57.144531 13.3125 -58.40625 C 13.757812 -58.957031 14.164062 -59.234375 14.53125 -59.234375 C 15.070312 -59.234375 15.523438 -58.914062 15.890625 -58.28125 C 16.253906 -57.820312 16.347656 -57.097656 16.171875 -56.109375 C 16.078125 -55.378906 15.984375 -54.675781 15.890625 -54 C 15.804688 -53.320312 15.671875 -52.617188 15.484375 -51.890625 C 15.390625 -51.253906 15.273438 -50.570312 15.140625 -49.84375 C 15.003906 -49.125 14.894531 -48.40625 14.8125 -47.6875 C 14.625 -46.59375 14.507812 -45.523438 14.46875 -44.484375 C 14.425781 -43.441406 14.445312 -42.378906 14.53125 -41.296875 C 14.71875 -40.847656 14.945312 -40.625 15.21875 -40.625 C 15.488281 -40.625 15.671875 -40.664062 15.765625 -40.75 C 16.210938 -40.9375 16.660156 -41.164062 17.109375 -41.4375 C 17.566406 -41.707031 18.019531 -42.023438 18.46875 -42.390625 C 19.195312 -42.835938 19.878906 -43.3125 20.515625 -43.8125 C 21.148438 -44.3125 21.785156 -44.832031 22.421875 -45.375 C 23.046875 -45.914062 23.648438 -46.457031 24.234375 -47 C 24.828125 -47.539062 25.441406 -48.082031 26.078125 -48.625 C 27.984375 -50.53125 29.929688 -52.34375 31.921875 -54.0625 C 32.378906 -54.519531 32.878906 -54.882812 33.421875 -55.15625 C 33.691406 -55.238281 34.050781 -55.054688 34.5 -54.609375 C 34.863281 -54.242188 34.910156 -53.878906 34.640625 -53.515625 L 34.234375 -53.109375 C 33.421875 -52.390625 32.601562 -51.644531 31.78125 -50.875 C 30.96875 -50.101562 30.15625 -49.351562 29.34375 -48.625 C 28.4375 -47.90625 27.570312 -47.132812 26.75 -46.3125 C 25.9375 -45.5 25.125 -44.734375 24.3125 -44.015625 C 23.226562 -43.015625 22.097656 -42.109375 20.921875 -41.296875 C 19.742188 -40.484375 18.519531 -39.710938 17.25 -38.984375 C 16.613281 -38.617188 15.976562 -38.4375 15.34375 -38.4375 C 13.8125 -38.4375 12.816406 -39.476562 12.359375 -41.5625 C 11.992188 -42.925781 12.039062 -44.515625 12.5 -46.328125 L 13.3125 -51.890625 C 13.40625 -52.066406 13.453125 -52.335938 13.453125 -52.703125 C 13.453125 -52.796875 13.359375 -53.113281 13.171875 -53.65625 C 12.722656 -53.289062 12.382812 -52.925781 12.15625 -52.5625 C 11.925781 -52.207031 11.722656 -51.847656 11.546875 -51.484375 C 7.109375 -42.429688 4.253906 -32.921875 2.984375 -22.953125 C 2.898438 -22.316406 2.832031 -21.703125 2.78125 -21.109375 C 2.738281 -20.523438 2.71875 -19.960938 2.71875 -19.421875 C 2.625 -18.785156 2.550781 -18.195312 2.5 -17.65625 C 2.457031 -17.113281 2.394531 -16.523438 2.3125 -15.890625 C 2.3125 -15.617188 2.285156 -15.300781 2.234375 -14.9375 C 2.191406 -14.582031 2.125 -14.175781 2.03125 -13.71875 C 2.03125 -13.269531 1.804688 -12.953125 1.359375 -12.765625 Z M 6.390625 -61.671875 C 6.929688 -61.941406 7.3125 -62.300781 7.53125 -62.75 C 7.757812 -63.207031 7.96875 -63.664062 8.15625 -64.125 L 12.640625 -72.265625 C 14.628906 -75.796875 16.597656 -79.328125 18.546875 -82.859375 C 20.492188 -86.390625 22.414062 -89.921875 24.3125 -93.453125 C 25.039062 -94.628906 25.695312 -95.828125 26.28125 -97.046875 C 26.875 -98.273438 27.441406 -99.523438 27.984375 -100.796875 C 28.160156 -101.160156 28.335938 -101.519531 28.515625 -101.875 C 28.703125 -102.238281 28.660156 -102.648438 28.390625 -103.109375 C 27.941406 -103.109375 27.488281 -102.878906 27.03125 -102.421875 C 23.957031 -98.984375 21.015625 -94.953125 18.203125 -90.328125 C 15.390625 -85.710938 12.960938 -80.914062 10.921875 -75.9375 C 8.890625 -70.957031 7.378906 -66.203125 6.390625 -61.671875 Z M 6.390625 -61.671875 "/></g></g></g><g fill="#272727" fill-opacity="1"><g transform="translate(65.56602, 354.883586)"><g><path d="M 37.609375 -21.6875 L 42.015625 -21.6875 L 42.015625 -5.140625 C 39.992188 -3.367188 37.597656 -2.003906 34.828125 -1.046875 C 32.054688 -0.0976562 29.144531 0.375 26.09375 0.375 C 21.75 0.375 17.84375 -0.570312 14.375 -2.46875 C 10.90625 -4.375 8.175781 -7.007812 6.1875 -10.375 C 4.207031 -13.75 3.21875 -17.519531 3.21875 -21.6875 C 3.21875 -25.863281 4.207031 -29.632812 6.1875 -33 C 8.175781 -36.363281 10.90625 -38.992188 14.375 -40.890625 C 17.84375 -42.796875 21.769531 -43.75 26.15625 -43.75 C 29.457031 -43.75 32.488281 -43.222656 35.25 -42.171875 C 38.019531 -41.117188 40.359375 -39.554688 42.265625 -37.484375 L 39.40625 -34.578125 C 35.976562 -37.960938 31.625 -39.65625 26.34375 -39.65625 C 22.820312 -39.65625 19.644531 -38.878906 16.8125 -37.328125 C 13.988281 -35.785156 11.769531 -33.640625 10.15625 -30.890625 C 8.550781 -28.140625 7.75 -25.070312 7.75 -21.6875 C 7.75 -18.300781 8.550781 -15.242188 10.15625 -12.515625 C 11.769531 -9.785156 13.976562 -7.632812 16.78125 -6.0625 C 19.59375 -4.5 22.757812 -3.71875 26.28125 -3.71875 C 30.738281 -3.71875 34.515625 -4.832031 37.609375 -7.0625 Z M 37.609375 -21.6875 "/></g></g></g><g fill="#272727" fill-opacity="1"><g transform="translate(119.036218, 354.883586)"><g><path d="M 36.6875 0 L 26.765625 -13.9375 C 25.648438 -13.8125 24.492188 -13.75 23.296875 -13.75 L 11.65625 -13.75 L 11.65625 0 L 7.0625 0 L 7.0625 -43.375 L 23.296875 -43.375 C 28.835938 -43.375 33.175781 -42.050781 36.3125 -39.40625 C 39.445312 -36.769531 41.015625 -33.132812 41.015625 -28.5 C 41.015625 -25.113281 40.15625 -22.253906 38.4375 -19.921875 C 36.726562 -17.585938 34.285156 -15.90625 31.109375 -14.875 L 41.703125 0 Z M 23.171875 -17.65625 C 27.472656 -17.65625 30.757812 -18.601562 33.03125 -20.5 C 35.300781 -22.40625 36.4375 -25.070312 36.4375 -28.5 C 36.4375 -32.007812 35.300781 -34.703125 33.03125 -36.578125 C 30.757812 -38.460938 27.472656 -39.40625 23.171875 -39.40625 L 11.65625 -39.40625 L 11.65625 -17.65625 Z M 23.171875 -17.65625 "/></g></g></g><g fill="#272727" fill-opacity="1"><g transform="translate(169.408557, 354.883586)"><g><path d="M 37.734375 -3.96875 L 37.734375 0 L 7.0625 0 L 7.0625 -43.375 L 36.8125 -43.375 L 36.8125 -39.40625 L 11.65625 -39.40625 L 11.65625 -23.984375 L 34.078125 -23.984375 L 34.078125 -20.078125 L 11.65625 -20.078125 L 11.65625 -3.96875 Z M 37.734375 -3.96875 "/></g></g></g><g fill="#272727" fill-opacity="1"><g transform="translate(216.435197, 354.883586)"><g><path d="M 37.734375 -3.96875 L 37.734375 0 L 7.0625 0 L 7.0625 -43.375 L 36.8125 -43.375 L 36.8125 -39.40625 L 11.65625 -39.40625 L 11.65625 -23.984375 L 34.078125 -23.984375 L 34.078125 -20.078125 L 11.65625 -20.078125 L 11.65625 -3.96875 Z M 37.734375 -3.96875 "/></g></g></g><g fill="#272727" fill-opacity="1"><g transform="translate(263.461826, 354.883586)"><g><path d="M 43.3125 -43.375 L 43.3125 0 L 39.53125 0 L 11.65625 -35.203125 L 11.65625 0 L 7.0625 0 L 7.0625 -43.375 L 10.84375 -43.375 L 38.796875 -8.1875 L 38.796875 -43.375 Z M 43.3125 -43.375 "/></g></g></g><g fill="#272727" fill-opacity="1"><g transform="translate(319.410337, 354.883586)"><g/></g></g><g fill="#272727" fill-opacity="1"><g transform="translate(341.220332, 354.883586)"><g><path d="M 11.65625 -39.40625 L 11.65625 -22.375 L 34.078125 -22.375 L 34.078125 -18.40625 L 11.65625 -18.40625 L 11.65625 0 L 7.0625 0 L 7.0625 -43.375 L 36.8125 -43.375 L 36.8125 -39.40625 Z M 11.65625 -39.40625 "/></g></g></g><g fill="#272727" fill-opacity="1"><g transform="translate(386.016498, 354.883586)"><g><path d="M 7.0625 -43.375 L 11.65625 -43.375 L 11.65625 0 L 7.0625 0 Z M 7.0625 -43.375 "/></g></g></g><g fill="#272727" fill-opacity="1"><g transform="translate(410.304818, 354.883586)"><g><path d="M 43.3125 -43.375 L 43.3125 0 L 39.53125 0 L 11.65625 -35.203125 L 11.65625 0 L 7.0625 0 L 7.0625 -43.375 L 10.84375 -43.375 L 38.796875 -8.1875 L 38.796875 -43.375 Z M 43.3125 -43.375 "/></g></g></g><g fill="#272727" fill-opacity="1"><g transform="translate(466.253283, 354.883586)"><g><path d="M 37.609375 -21.6875 L 42.015625 -21.6875 L 42.015625 -5.140625 C 39.992188 -3.367188 37.597656 -2.003906 34.828125 -1.046875 C 32.054688 -0.0976562 29.144531 0.375 26.09375 0.375 C 21.75 0.375 17.84375 -0.570312 14.375 -2.46875 C 10.90625 -4.375 8.175781 -7.007812 6.1875 -10.375 C 4.207031 -13.75 3.21875 -17.519531 3.21875 -21.6875 C 3.21875 -25.863281 4.207031 -29.632812 6.1875 -33 C 8.175781 -36.363281 10.90625 -38.992188 14.375 -40.890625 C 17.84375 -42.796875 21.769531 -43.75 26.15625 -43.75 C 29.457031 -43.75 32.488281 -43.222656 35.25 -42.171875 C 38.019531 -41.117188 40.359375 -39.554688 42.265625 -37.484375 L 39.40625 -34.578125 C 35.976562 -37.960938 31.625 -39.65625 26.34375 -39.65625 C 22.820312 -39.65625 19.644531 -38.878906 16.8125 -37.328125 C 13.988281 -35.785156 11.769531 -33.640625 10.15625 -30.890625 C 8.550781 -28.140625 7.75 -25.070312 7.75 -21.6875 C 7.75 -18.300781 8.550781 -15.242188 10.15625 -12.515625 C 11.769531 -9.785156 13.976562 -7.632812 16.78125 -6.0625 C 19.59375 -4.5 22.757812 -3.71875 26.28125 -3.71875 C 30.738281 -3.71875 34.515625 -4.832031 37.609375 -7.0625 Z M 37.609375 -21.6875 "/></g></g></g><g fill="#272727" fill-opacity="1"><g transform="translate(519.723471, 354.883586)"><g><path d="M 37.734375 -3.96875 L 37.734375 0 L 7.0625 0 L 7.0625 -43.375 L 36.8125 -43.375 L 36.8125 -39.40625 L 11.65625 -39.40625 L 11.65625 -23.984375 L 34.078125 -23.984375 L 34.078125 -20.078125 L 11.65625 -20.078125 L 11.65625 -3.96875 Z M 37.734375 -3.96875 "/></g></g></g><g fill="#272727" fill-opacity="1"><g transform="translate(566.750133, 354.883586)"><g><path d="M 36.6875 0 L 26.765625 -13.9375 C 25.648438 -13.8125 24.492188 -13.75 23.296875 -13.75 L 11.65625 -13.75 L 11.65625 0 L 7.0625 0 L 7.0625 -43.375 L 23.296875 -43.375 C 28.835938 -43.375 33.175781 -42.050781 36.3125 -39.40625 C 39.445312 -36.769531 41.015625 -33.132812 41.015625 -28.5 C 41.015625 -25.113281 40.15625 -22.253906 38.4375 -19.921875 C 36.726562 -17.585938 34.285156 -15.90625 31.109375 -14.875 L 41.703125 0 Z M 23.171875 -17.65625 C 27.472656 -17.65625 30.757812 -18.601562 33.03125 -20.5 C 35.300781 -22.40625 36.4375 -25.070312 36.4375 -28.5 C 36.4375 -32.007812 35.300781 -34.703125 33.03125 -36.578125 C 30.757812 -38.460938 27.472656 -39.40625 23.171875 -39.40625 L 11.65625 -39.40625 L 11.65625 -17.65625 Z M 23.171875 -17.65625 "/></g></g></g><g fill="#272727" fill-opacity="1"><g transform="translate(617.122472, 354.883586)"><g><path d="M 19.03125 0.375 C 15.800781 0.375 12.707031 -0.140625 9.75 -1.171875 C 6.800781 -2.210938 4.519531 -3.578125 2.90625 -5.265625 L 4.703125 -8.796875 C 6.273438 -7.222656 8.363281 -5.953125 10.96875 -4.984375 C 13.570312 -4.015625 16.257812 -3.53125 19.03125 -3.53125 C 22.90625 -3.53125 25.8125 -4.242188 27.75 -5.671875 C 29.695312 -7.097656 30.671875 -8.945312 30.671875 -11.21875 C 30.671875 -12.945312 30.144531 -14.328125 29.09375 -15.359375 C 28.039062 -16.398438 26.75 -17.195312 25.21875 -17.75 C 23.6875 -18.3125 21.5625 -18.921875 18.84375 -19.578125 C 15.570312 -20.410156 12.96875 -21.207031 11.03125 -21.96875 C 9.09375 -22.726562 7.429688 -23.894531 6.046875 -25.46875 C 4.660156 -27.039062 3.96875 -29.171875 3.96875 -31.859375 C 3.96875 -34.046875 4.546875 -36.035156 5.703125 -37.828125 C 6.859375 -39.628906 8.632812 -41.066406 11.03125 -42.140625 C 13.425781 -43.210938 16.398438 -43.75 19.953125 -43.75 C 22.429688 -43.75 24.859375 -43.40625 27.234375 -42.71875 C 29.609375 -42.039062 31.664062 -41.101562 33.40625 -39.90625 L 31.859375 -36.25 C 30.035156 -37.445312 28.085938 -38.34375 26.015625 -38.9375 C 23.953125 -39.539062 21.929688 -39.84375 19.953125 -39.84375 C 16.148438 -39.84375 13.285156 -39.109375 11.359375 -37.640625 C 9.441406 -36.179688 8.484375 -34.289062 8.484375 -31.96875 C 8.484375 -30.238281 9.007812 -28.847656 10.0625 -27.796875 C 11.125 -26.742188 12.445312 -25.9375 14.03125 -25.375 C 15.625 -24.820312 17.765625 -24.210938 20.453125 -23.546875 C 23.628906 -22.765625 26.195312 -21.988281 28.15625 -21.21875 C 30.125 -20.457031 31.789062 -19.300781 33.15625 -17.75 C 34.519531 -16.207031 35.203125 -14.113281 35.203125 -11.46875 C 35.203125 -9.28125 34.613281 -7.285156 33.4375 -5.484375 C 32.257812 -3.679688 30.453125 -2.253906 28.015625 -1.203125 C 25.578125 -0.148438 22.582031 0.375 19.03125 0.375 Z M 19.03125 0.375 "/></g></g></g></svg>