<svg width="393" height="248" viewBox="0 0 393 248" fill="none" xmlns="http://www.w3.org/2000/svg">
<rect x="306" y="54.1492" width="21" height="23.0647" transform="rotate(180 306 54.1492)" fill="#7D9B76"/>
<path d="M202 54.1493V1.00012H306V31.5748L290.5 48.5001L285.327 54.1493H202Z" fill="#38682B"/>
<path d="M191 54.1493V1.00012H306V19.5633L279.5 48.5001L274.327 54.1493H191Z" fill="#7D9B76"/>
<path d="M180 54.1493V1.00012L306 0.999996V7.55185L268.5 48.5001L263.327 54.1493H180Z" fill="#38682B"/>
<path d="M169 54.1493V1.00012H301L257.5 48.5001L252.327 54.1493H169Z" fill="#7D9B76"/>
<path d="M158 54.1493V1.00012H290L246.5 48.5001L241.327 54.1493H158Z" fill="#38682B"/>
<path d="M147 54.1493V1.00012H279L235.5 48.5001L230.327 54.1493H147Z" fill="#7D9B76"/>
<path d="M136 54.1493V1.00012H268L224.5 48.5001L219.327 54.1493H136Z" fill="#38682B"/>
<path d="M170 96L136 58.8736V0.999992H257L170 96Z" fill="#5E9771"/>
<path d="M170 79.6208L136 42.4944V1.00011H242L170 79.6208Z" fill="#457D58"/>
<path d="M177 71.9771L136 27.207V1.00011H242L177 71.9771Z" fill="#1A1A1A"/>
<path d="M197 50.1379L152 1H242L197 50.1379Z" fill="#1F5014"/>
<path d="M136 59V1H393" stroke="#F8F7EF"/>
<path d="M74.972 135.192C73.2653 135.192 71.6867 134.915 70.236 134.36C68.8067 133.784 67.5587 132.984 66.492 131.96C65.4467 130.936 64.6253 129.731 64.028 128.344C63.452 126.957 63.164 125.443 63.164 123.8C63.164 122.157 63.452 120.643 64.028 119.256C64.6253 117.869 65.4573 116.664 66.524 115.64C67.5907 114.616 68.8387 113.827 70.268 113.272C71.7187 112.696 73.2973 112.408 75.004 112.408C76.7107 112.408 78.268 112.675 79.676 113.208C81.1053 113.741 82.3213 114.552 83.324 115.64L81.852 117.144C80.9133 116.205 79.8787 115.533 78.748 115.128C77.6173 114.723 76.4013 114.52 75.1 114.52C73.7133 114.52 72.4333 114.755 71.26 115.224C70.108 115.672 69.0947 116.323 68.22 117.176C67.3667 118.008 66.6947 118.989 66.204 120.12C65.7347 121.229 65.5 122.456 65.5 123.8C65.5 125.123 65.7347 126.349 66.204 127.48C66.6947 128.611 67.3667 129.603 68.22 130.456C69.0947 131.288 70.108 131.939 71.26 132.408C72.4333 132.856 73.7027 133.08 75.068 133.08C76.348 133.08 77.5533 132.888 78.684 132.504C79.836 132.12 80.892 131.469 81.852 130.552L83.196 132.344C82.1293 133.283 80.8813 133.997 79.452 134.488C78.0227 134.957 76.5293 135.192 74.972 135.192ZM80.924 132.056V123.8H83.196V132.344L80.924 132.056ZM89.898 135V112.6H98.282C100.181 112.6 101.813 112.909 103.178 113.528C104.543 114.125 105.589 115 106.314 116.152C107.061 117.283 107.434 118.659 107.434 120.28C107.434 121.859 107.061 123.224 106.314 124.376C105.589 125.507 104.543 126.381 103.178 127C101.813 127.597 100.181 127.896 98.282 127.896H91.21L92.266 126.808V135H89.898ZM105.194 135L99.434 126.872H101.994L107.786 135H105.194ZM92.266 127L91.21 125.88H98.218C100.458 125.88 102.154 125.389 103.306 124.408C104.479 123.427 105.066 122.051 105.066 120.28C105.066 118.488 104.479 117.101 103.306 116.12C102.154 115.139 100.458 114.648 98.218 114.648H91.21L92.266 113.528V127ZM115.135 122.616H126.975V124.632H115.135V122.616ZM115.391 132.952H128.863V135H113.023V112.6H128.383V114.648H115.391V132.952ZM136.541 122.616H148.381V124.632H136.541V122.616ZM136.797 132.952H150.269V135H134.429V112.6H149.789V114.648H136.797V132.952ZM155.836 135V112.6H157.788L173.244 132.056H172.22V112.6H174.556V135H172.604L157.18 115.544H158.204V135H155.836ZM192.354 123.448H204.194V125.496H192.354V123.448ZM192.61 135H190.242V112.6H205.602V114.648H192.61V135ZM210.492 135V112.6H212.86V135H210.492ZM220.148 135V112.6H222.1L237.556 132.056H236.532V112.6H238.868V135H236.916L221.492 115.544H222.516V135H220.148ZM256.003 135.192C254.297 135.192 252.718 134.915 251.267 134.36C249.838 133.784 248.59 132.984 247.523 131.96C246.478 130.936 245.657 129.731 245.059 128.344C244.483 126.957 244.195 125.443 244.195 123.8C244.195 122.157 244.483 120.643 245.059 119.256C245.657 117.869 246.489 116.664 247.555 115.64C248.622 114.616 249.87 113.827 251.299 113.272C252.75 112.696 254.329 112.408 256.035 112.408C257.742 112.408 259.299 112.675 260.707 113.208C262.137 113.741 263.353 114.552 264.355 115.64L262.883 117.144C261.945 116.205 260.91 115.533 259.779 115.128C258.649 114.723 257.433 114.52 256.131 114.52C254.745 114.52 253.465 114.755 252.291 115.224C251.139 115.672 250.126 116.323 249.251 117.176C248.398 118.008 247.726 118.989 247.235 120.12C246.766 121.229 246.531 122.456 246.531 123.8C246.531 125.123 246.766 126.349 247.235 127.48C247.726 128.611 248.398 129.603 249.251 130.456C250.126 131.288 251.139 131.939 252.291 132.408C253.465 132.856 254.734 133.08 256.099 133.08C257.379 133.08 258.585 132.888 259.715 132.504C260.867 132.12 261.923 131.469 262.883 130.552L264.227 132.344C263.161 133.283 261.913 133.997 260.483 134.488C259.054 134.957 257.561 135.192 256.003 135.192ZM261.955 132.056V123.8H264.227V132.344L261.955 132.056ZM273.041 122.616H284.881V124.632H273.041V122.616ZM273.297 132.952H286.769V135H270.929V112.6H286.289V114.648H273.297V132.952ZM292.336 135V112.6H300.72C302.618 112.6 304.25 112.909 305.616 113.528C306.981 114.125 308.026 115 308.752 116.152C309.498 117.283 309.872 118.659 309.872 120.28C309.872 121.859 309.498 123.224 308.752 124.376C308.026 125.507 306.981 126.381 305.616 127C304.25 127.597 302.618 127.896 300.72 127.896H293.648L294.704 126.808V135H292.336ZM307.632 135L301.872 126.872H304.432L310.224 135H307.632ZM294.704 127L293.648 125.88H300.656C302.896 125.88 304.592 125.389 305.744 124.408C306.917 123.427 307.503 122.051 307.503 120.28C307.503 118.488 306.917 117.101 305.744 116.12C304.592 115.139 302.896 114.648 300.656 114.648H293.648L294.704 113.528V127ZM321.637 135.192C319.973 135.192 318.373 134.925 316.837 134.392C315.322 133.837 314.149 133.133 313.317 132.28L314.245 130.456C315.034 131.224 316.09 131.875 317.413 132.408C318.757 132.92 320.165 133.176 321.637 133.176C323.045 133.176 324.186 133.005 325.061 132.664C325.957 132.301 326.607 131.821 327.013 131.224C327.439 130.627 327.653 129.965 327.653 129.24C327.653 128.365 327.397 127.661 326.885 127.128C326.394 126.595 325.743 126.179 324.933 125.88C324.122 125.56 323.226 125.283 322.245 125.048C321.263 124.813 320.282 124.568 319.301 124.312C318.319 124.035 317.413 123.672 316.581 123.224C315.77 122.776 315.109 122.189 314.597 121.464C314.106 120.717 313.861 119.747 313.861 118.552C313.861 117.443 314.149 116.429 314.725 115.512C315.322 114.573 316.229 113.827 317.445 113.272C318.661 112.696 320.218 112.408 322.117 112.408C323.375 112.408 324.623 112.589 325.861 112.952C327.098 113.293 328.165 113.773 329.061 114.392L328.26 116.28C327.301 115.64 326.277 115.171 325.189 114.872C324.122 114.573 323.087 114.424 322.085 114.424C320.741 114.424 319.631 114.605 318.757 114.968C317.882 115.331 317.231 115.821 316.805 116.44C316.399 117.037 316.197 117.72 316.197 118.488C316.197 119.363 316.442 120.067 316.933 120.6C317.445 121.133 318.106 121.549 318.917 121.848C319.749 122.147 320.655 122.413 321.637 122.648C322.618 122.883 323.589 123.139 324.549 123.416C325.53 123.693 326.426 124.056 327.237 124.504C328.069 124.931 328.73 125.507 329.221 126.232C329.733 126.957 329.989 127.907 329.989 129.08C329.989 130.168 329.69 131.181 329.093 132.12C328.495 133.037 327.578 133.784 326.341 134.36C325.125 134.915 323.557 135.192 321.637 135.192Z" fill="#F8F7EF"/>
<rect x="87" y="193.851" width="21" height="23.0647" fill="#7D9B76"/>
<path d="M191 193.851V247H87V216.425L102.5 199.5L107.673 193.851H191Z" fill="#38682B"/>
<path d="M202 193.851V247H87V228.437L113.5 199.5L118.673 193.851H202Z" fill="#7D9B76"/>
<path d="M213 193.851V247L87 247V240.448L124.5 199.5L129.673 193.851H213Z" fill="#38682B"/>
<path d="M224 193.851V247H92L135.5 199.5L140.673 193.851H224Z" fill="#7D9B76"/>
<path d="M235 193.851V247H103L146.5 199.5L151.673 193.851H235Z" fill="#38682B"/>
<path d="M246 193.851V247H114L157.5 199.5L162.673 193.851H246Z" fill="#7D9B76"/>
<path d="M257 193.851V247H125L168.5 199.5L173.673 193.851H257Z" fill="#38682B"/>
<path d="M223 152L257 189.126V247H136L223 152Z" fill="#5E9771"/>
<path d="M223 168.379L257 205.506V247H151L223 168.379Z" fill="#457D58"/>
<path d="M216 176.023L257 220.793V247H151L216 176.023Z" fill="#1A1A1A"/>
<path d="M196 197.862L241 247H151L196 197.862Z" fill="#1F5014"/>
<path d="M257 189V247H0" stroke="#F8F7EF"/>
</svg>
