<svg width="177" height="352" viewBox="0 0 177 352" fill="none" xmlns="http://www.w3.org/2000/svg">
<path d="M176.5 264C176.5 252.444 174.224 241.001 169.801 230.324C165.379 219.647 158.897 209.946 150.725 201.775C142.554 193.603 132.853 187.121 122.176 182.699C111.499 178.276 100.056 176 88.5 176C76.9437 176 65.5005 178.276 54.8239 182.699C44.1472 187.121 34.4462 193.603 26.2746 201.775C18.103 209.946 11.621 219.647 7.1986 230.324C2.77619 241.001 0.499999 252.444 0.5 264L44.5267 264C44.5267 258.225 45.6641 252.507 47.874 247.172C50.0838 241.837 53.3229 236.989 57.4062 232.906C61.4895 228.823 66.3371 225.584 71.6721 223.374C77.0072 221.164 82.7253 220.027 88.5 220.027C94.2747 220.027 99.9928 221.164 105.328 223.374C110.663 225.584 115.511 228.823 119.594 232.906C123.677 236.989 126.916 241.837 129.126 247.172C131.336 252.507 132.473 258.225 132.473 264H176.5Z" fill="#757575"/>
<path d="M0.5 88C0.5 99.5563 2.77618 110.999 7.19861 121.676C11.621 132.353 18.103 142.054 26.2746 150.225C34.4462 158.397 44.1472 164.879 54.8239 169.301C65.5005 173.724 76.9437 176 88.5 176C100.056 176 111.499 173.724 122.176 169.301C132.853 164.879 142.554 158.397 150.725 150.225C158.897 142.054 165.379 132.353 169.801 121.676C174.224 110.999 176.5 99.5563 176.5 88L88.5 88H0.5Z" fill="#F8F7EF"/>
<path d="M88.5 6C88.5 6 71 23 66.5 41.5C55 33 26 31.5 26 31.5C26 31.5 26 70 48 88H129C151 69 151 31.5 151 31.5C151 31.5 120 33 110.5 41.5C107 24 88.5 6 88.5 6Z" fill="#376346"/>
</svg>
