<svg xmlns="http://www.w3.org/2000/svg" xmlns:xlink="http://www.w3.org/1999/xlink" width="921" zoomAndPan="magnify" viewBox="0 0 690.75 947.249971" height="1263" preserveAspectRatio="xMidYMid meet" version="1.0"><defs><filter x="0%" y="0%" width="100%" height="100%" id="507154546e"><feColorMatrix values="0 0 0 0 1 0 0 0 0 1 0 0 0 0 1 0 0 0 1 0" color-interpolation-filters="sRGB"/></filter><mask id="f1fd53b785"><g filter="url(#507154546e)"><rect x="-69.075" width="828.9" fill="#000000" y="-94.724997" height="1136.699965" fill-opacity="0.53"/></g></mask><clipPath id="fce61a34cf"><path d="M 0.828125 0.425781 L 520.164062 0.425781 L 520.164062 768.46875 L 0.828125 768.46875 Z M 0.828125 0.425781 " clip-rule="nonzero"/></clipPath><clipPath id="b09268abd6"><rect x="0" width="521" y="0" height="769"/></clipPath><clipPath id="baab37dae9"><path d="M 0.148438 90 L 601 90 L 601 940 L 0.148438 940 Z M 0.148438 90 " clip-rule="nonzero"/></clipPath><clipPath id="774c6dcf5d"><path d="M 47 94 L 651 94 L 651 946.5 L 47 946.5 Z M 47 94 " clip-rule="nonzero"/></clipPath></defs><g mask="url(#f1fd53b785)"><g transform="matrix(1, 0, 0, 1, 65, 156)"><g clip-path="url(#b09268abd6)"><g clip-path="url(#fce61a34cf)"><path fill="#cbddd1" d="M 520.292969 258.960938 C 520.292969 116.179688 404.007812 0.433594 260.5625 0.433594 C 117.113281 0.433594 0.828125 116.179688 0.828125 258.960938 L 0.828125 768.257812 L 520.292969 768.257812 Z M 520.292969 258.960938 " fill-opacity="1" fill-rule="evenodd"/></g></g></g></g><g clip-path="url(#baab37dae9)"><path fill="#272727" d="M 347.371094 92.167969 C 342.601562 91.464844 337.480469 91.109375 333.421875 90.933594 C 331.476562 90.757812 329.710938 90.933594 328.476562 91.109375 C 327.242188 91.285156 326.535156 91.464844 326.535156 91.640625 C 326.535156 91.816406 327.242188 92.167969 328.476562 92.523438 C 329.710938 92.875 331.476562 93.230469 333.421875 93.757812 C 337.304688 94.640625 342.601562 95.523438 347.191406 96.230469 C 364.671875 98.878906 379.503906 102.941406 392.570312 107.179688 C 395.75 108.238281 398.929688 109.296875 402.105469 110.355469 C 405.109375 111.59375 408.109375 112.652344 410.933594 113.710938 C 416.761719 115.832031 421.882812 118.480469 426.828125 120.597656 C 446.777344 129.957031 461.789062 139.3125 475.914062 149.730469 C 490.039062 160.148438 503.632812 171.625 518.644531 187.695312 C 520.585938 189.636719 522.351562 191.933594 524.292969 194.050781 C 526.234375 196.171875 528.179688 198.464844 530.121094 200.761719 C 533.828125 205.527344 538.066406 210.472656 541.949219 216.300781 C 543.007812 217.710938 543.890625 219.125 544.953125 220.535156 C 545.480469 221.242188 546.011719 221.949219 546.542969 222.65625 C 547.070312 223.363281 547.601562 224.246094 547.953125 224.949219 C 549.894531 227.953125 552.015625 231.132812 554.132812 234.484375 C 556.074219 237.839844 558.019531 241.371094 560.136719 244.902344 C 561.195312 246.667969 562.078125 248.613281 563.140625 250.378906 C 564.199219 252.320312 565.082031 254.261719 566.140625 256.203125 C 574.085938 271.917969 579.558594 286.398438 583.796875 299.464844 C 587.683594 312.707031 590.859375 324.359375 592.625 335.308594 C 596.6875 357.027344 597.570312 374.683594 597.746094 392.339844 C 597.921875 427.832031 597.921875 463.144531 598.101562 534.125 C 598.101562 539.601562 598.101562 540.835938 598.804688 541.011719 C 599.335938 541.011719 600.21875 539.777344 600.21875 534.304688 C 600.394531 463.496094 600.394531 428.007812 600.394531 392.515625 C 600.394531 374.683594 599.511719 356.847656 595.628906 334.953125 C 593.863281 324.007812 590.859375 312 586.800781 298.757812 C 582.5625 285.515625 577.085938 270.859375 569.140625 254.96875 C 568.082031 253.027344 567.199219 251.082031 566.140625 249.140625 C 565.082031 247.199219 564.199219 245.257812 563.140625 243.492188 C 561.019531 239.78125 559.078125 236.429688 557.136719 232.898438 C 555.015625 229.542969 552.898438 226.363281 550.957031 223.183594 C 550.425781 222.480469 549.894531 221.597656 549.542969 220.890625 C 549.011719 220.183594 548.484375 219.476562 547.953125 218.59375 C 546.894531 217.183594 545.835938 215.769531 544.953125 214.355469 C 541.066406 208.53125 536.828125 203.585938 533.121094 198.640625 C 531.179688 196.171875 529.238281 194.050781 527.292969 191.753906 C 525.351562 189.636719 523.585938 187.339844 521.644531 185.398438 C 506.460938 169.15625 492.863281 157.324219 478.5625 146.730469 C 464.257812 136.136719 449.074219 126.601562 428.945312 117.066406 C 423.824219 114.769531 418.527344 112.121094 412.699219 110.003906 C 409.875 108.945312 406.875 107.707031 403.871094 106.472656 C 400.695312 105.414062 397.515625 104.351562 394.335938 103.292969 C 381.09375 99.054688 365.910156 94.820312 348.253906 92.171875 C 347.722656 91.992188 347.546875 92.167969 347.371094 92.167969 Z M 599.867188 601.574219 C 599.867188 685.800781 599.867188 685.800781 599.867188 769.847656 C 599.867188 775.320312 599.511719 783.445312 598.984375 783.445312 C 598.453125 783.265625 597.746094 775.320312 597.570312 770.023438 C 597.394531 685.800781 598.101562 685.800781 597.921875 601.574219 C 597.921875 594.511719 598.101562 591.863281 598.804688 591.6875 C 599.511719 591.511719 599.867188 593.984375 599.867188 601.222656 C 599.867188 601.398438 599.867188 601.574219 599.867188 601.574219 Z M 3.761719 623.472656 C 4.117188 642.1875 3.761719 639.007812 3.761719 661.785156 C 3.941406 684.5625 3.585938 714.757812 3.585938 744.953125 C 3.410156 775.144531 3.410156 805.515625 3.234375 828.117188 C 3.058594 850.894531 3.058594 846.832031 2.878906 865.902344 C 2.878906 871.375 2.703125 872.433594 2.171875 872.082031 C 1.644531 871.730469 1.289062 871.023438 1.289062 866.078125 C 1.113281 847.1875 0.761719 851.246094 0.585938 828.46875 C 0.585938 805.691406 0.40625 775.320312 0.40625 745.128906 C 0.40625 714.933594 0.9375 684.742188 0.9375 661.964844 C 1.113281 639.1875 0.9375 643.246094 1.289062 624.53125 C 1.46875 617.46875 1.644531 615.347656 2.351562 616.40625 C 2.878906 617.113281 3.585938 617.996094 3.761719 623.472656 Z M 4.46875 936.175781 C 5.527344 936.175781 6.410156 936.175781 7.117188 936.175781 C 8 936.175781 8.707031 936.175781 9.238281 936.175781 C 10.472656 936.175781 11.355469 936.355469 12.414062 936.355469 C 14.535156 936.53125 16.828125 936.53125 22.480469 936.53125 C 33.957031 936.53125 50.199219 936.355469 69.800781 936.175781 C 89.398438 936.355469 112.175781 936.355469 136.542969 936.53125 C 160.910156 936.355469 187.042969 936.355469 213.175781 936.175781 C 239.308594 936.175781 265.441406 936 289.808594 936 C 314.175781 936 337.128906 936.175781 356.726562 936.175781 C 395.925781 936.53125 389.214844 936.355469 421.882812 936.707031 C 427.355469 936.707031 430.359375 937.238281 430.179688 937.765625 C 430.003906 938.296875 427.003906 938.648438 421.882812 938.648438 C 389.214844 938.648438 395.75 938.648438 356.550781 938.648438 C 336.953125 938.648438 314.175781 938.824219 289.808594 938.824219 C 265.441406 939.003906 239.308594 939.003906 213.351562 939.179688 C 187.21875 939.355469 161.265625 939.53125 136.71875 939.707031 C 112.355469 939.707031 89.398438 939.707031 69.800781 939.707031 C 50.199219 939.707031 34.308594 939.003906 22.832031 938.824219 C 11.355469 938.824219 14.003906 938.824219 5 938.648438 C 3.410156 938.648438 2.171875 938.648438 1.289062 938.648438 C 1.289062 934.765625 1.46875 933.707031 1.644531 932.644531 C 1.820312 931.761719 1.996094 931.585938 2.351562 931.761719 C 2.703125 932.117188 3.054688 932.46875 3.234375 933.175781 C 3.410156 933.527344 3.585938 934.058594 3.585938 934.765625 C 3.585938 934.941406 3.585938 935.292969 3.585938 935.292969 C 3.585938 935.292969 3.585938 935.472656 3.585938 935.472656 C 3.585938 935.648438 3.585938 935.648438 3.761719 935.824219 C 4.117188 936.175781 4.292969 936.175781 4.46875 936.175781 Z M 477.5 936.355469 C 486.152344 936 485.449219 936.355469 496.394531 936.355469 C 507.164062 936.175781 521.46875 936.53125 535.945312 936.53125 C 550.425781 936.707031 564.550781 936.707031 575.5 936.882812 C 586.269531 937.058594 584.152344 937.238281 593.15625 937.238281 C 598.628906 937.414062 599.6875 937.414062 598.804688 937.941406 C 598.101562 938.472656 597.746094 938.648438 593.507812 938.648438 C 584.503906 938.824219 586.800781 939.179688 576.027344 939.355469 C 565.257812 939.355469 550.601562 939.53125 536.125 939.53125 C 521.644531 939.53125 507.519531 939.003906 496.75 939.003906 C 485.976562 938.828125 488.097656 939.003906 479.445312 938.648438 C 472.382812 938.472656 470.617188 938.121094 472.910156 937.414062 C 474.148438 937.238281 473.441406 936.53125 477.5 936.355469 Z M 599.335938 819.289062 C 599.511719 828.292969 599.335938 826.351562 599.511719 837.121094 C 599.511719 847.890625 599.335938 862.195312 599.335938 876.496094 C 599.335938 905.277344 599.335938 905.101562 598.984375 933.882812 C 598.984375 936.707031 598.984375 937.941406 598.804688 937.765625 C 598.453125 937.589844 597.921875 937.058594 597.921875 934.410156 C 597.746094 905.628906 597.746094 905.453125 597.746094 876.671875 C 597.746094 862.195312 598.277344 847.890625 598.453125 837.121094 C 598.453125 826.351562 598.453125 828.46875 598.628906 819.464844 C 598.628906 815.757812 598.628906 816.109375 598.984375 816.640625 C 599.160156 817.34375 599.335938 816.460938 599.335938 819.289062 Z M 0.40625 546.132812 C 0.230469 501.8125 0.761719 510.640625 0.761719 457.496094 C 0.761719 444.25 0.585938 429.773438 0.585938 414.585938 C 0.585938 406.996094 0.40625 399.226562 0.40625 391.105469 C 0.40625 387.042969 0.585938 382.980469 0.585938 378.921875 C 0.585938 376.800781 0.585938 374.859375 0.761719 372.742188 C 0.9375 370.621094 1.113281 368.679688 1.289062 366.5625 C 2.527344 349.964844 5 332.660156 9.238281 315.707031 C 13.472656 298.582031 19.300781 281.628906 26.71875 265.386719 C 41.371094 232.898438 62.207031 203.054688 85.691406 179.394531 C 97.34375 167.390625 109.707031 156.972656 122.066406 147.964844 C 134.425781 138.960938 146.785156 131.546875 158.4375 125.011719 C 161.441406 123.421875 164.089844 122.1875 166.738281 120.773438 C 167.972656 120.066406 169.210938 119.539062 170.445312 118.832031 C 171.679688 118.300781 172.917969 117.773438 173.976562 117.242188 C 178.566406 115.300781 182.277344 113.359375 185.808594 112.121094 C 192.695312 109.472656 197.460938 107.355469 202.40625 105.941406 C 207.171875 104.351562 211.585938 102.765625 217.589844 101.175781 C 220.589844 100.46875 223.945312 99.234375 228.007812 98.351562 C 232.070312 97.46875 236.660156 96.40625 242.132812 95.347656 C 247.605469 94.464844 250.253906 94.289062 250.078125 94.820312 C 249.902344 95.347656 247.253906 95.878906 242.308594 96.761719 C 236.835938 97.820312 232.421875 99.054688 228.359375 99.9375 C 224.476562 100.820312 221.121094 102.058594 218.121094 102.765625 C 212.117188 104.351562 207.703125 106.117188 203.109375 107.707031 C 193.753906 111.0625 183.335938 114.59375 159.851562 126.953125 C 148.375 133.488281 136.191406 141.078125 124.007812 150.085938 C 112 159.265625 99.992188 169.859375 88.339844 181.691406 C 65.210938 205.351562 45.433594 235.015625 30.953125 267.152344 C 23.714844 283.21875 17.886719 299.816406 13.652344 316.589844 C 9.058594 333.542969 6.589844 350.316406 5.351562 366.914062 C 5.175781 369.03125 5 370.976562 4.824219 373.09375 C 4.644531 375.210938 4.644531 377.15625 4.644531 379.273438 C 4.46875 383.335938 4.292969 387.394531 4.292969 391.28125 C 4.292969 399.226562 4.117188 407.171875 4.117188 414.765625 C 3.941406 429.773438 3.761719 444.074219 3.761719 457.496094 C 3.761719 510.640625 3.761719 501.636719 3.585938 545.957031 C 3.585938 555.492188 3.058594 559.730469 2.171875 559.375 C 1.113281 559.023438 0.40625 555.136719 0.40625 546.132812 Z M 0.40625 546.132812 " fill-opacity="1" fill-rule="nonzero"/></g><path fill="#272727" d="M 38.722656 539.421875 C 37.664062 538.894531 36.605469 563.964844 36.605469 583.035156 C 36.605469 656.136719 36.605469 656.3125 36.605469 729.414062 C 36.78125 802.511719 36.78125 802.691406 36.78125 875.789062 C 36.605469 896.980469 36.605469 912.164062 36.605469 924.523438 C 53.378906 924.699219 65.5625 924.878906 80.394531 925.054688 C 94.519531 925.230469 111.472656 925.40625 137.78125 925.40625 C 210.878906 925.582031 211.234375 924.523438 284.332031 924.699219 C 357.433594 925.054688 357.082031 925.054688 430.179688 925.40625 C 503.28125 925.582031 490.921875 925.582031 564.023438 925.761719 C 564.90625 925.761719 578.5 925.761719 579.382812 925.761719 C 611.164062 925.761719 636.0625 924.171875 635.179688 922.40625 C 634.296875 920.816406 607.8125 919.226562 576.027344 919.226562 C 502.929688 919.226562 502.75 919.226562 429.652344 919.226562 C 356.550781 919.402344 356.550781 919.402344 283.449219 919.402344 C 210.351562 919.578125 210.703125 920.109375 137.601562 920.109375 C 89.046875 920.285156 73.507812 920.285156 40.667969 920.285156 C 40.667969 913.046875 40.667969 897.863281 40.488281 875.261719 C 40.3125 802.160156 41.195312 801.808594 41.019531 728.707031 C 40.667969 655.605469 40.667969 655.960938 40.3125 582.859375 C 40.3125 565.027344 39.605469 539.777344 38.722656 539.421875 Z M 635.003906 536.597656 C 635.003906 462.792969 634.296875 462.96875 634.121094 389.160156 C 634.472656 352.257812 632 333.894531 628.644531 315.886719 C 628.292969 313.589844 627.761719 311.292969 627.234375 309.175781 C 626.703125 306.878906 626.175781 304.585938 625.644531 302.113281 C 625.292969 300.875 625.113281 299.640625 624.761719 298.40625 C 624.410156 297.167969 624.054688 295.933594 623.703125 294.695312 C 622.996094 292.222656 622.289062 289.574219 621.40625 286.75 C 617.875 275.804688 613.636719 262.558594 605.691406 245.960938 C 601.632812 237.664062 597.921875 230.601562 594.214844 224.421875 C 590.683594 218.066406 587.152344 212.945312 583.972656 208.175781 C 580.796875 203.410156 577.617188 199.347656 574.792969 195.285156 C 571.789062 191.402344 568.964844 187.871094 566.140625 184.339844 C 563.140625 180.808594 560.136719 177.453125 556.957031 173.746094 C 553.605469 170.214844 550.074219 166.507812 546.011719 162.445312 C 537.710938 154.5 527.648438 145.140625 512.816406 134.195312 C 498.160156 123.246094 485.976562 116.535156 476.089844 110.886719 C 466.023438 105.414062 457.550781 101.527344 449.074219 97.820312 C 440.597656 94.289062 431.945312 90.933594 420.824219 87.578125 C 417.996094 86.695312 415.171875 85.988281 411.996094 85.105469 C 408.816406 84.222656 405.636719 83.519531 402.105469 82.8125 C 400.339844 82.457031 398.574219 81.929688 396.632812 81.574219 C 394.691406 81.222656 392.75 80.871094 390.804688 80.515625 C 386.746094 79.808594 382.507812 78.925781 378.09375 78.398438 C 373.5 77.867188 369.265625 77.160156 365.203125 76.808594 C 361.140625 76.453125 357.433594 76.277344 353.726562 75.925781 C 350.195312 75.75 346.839844 75.75 343.484375 75.570312 C 341.894531 75.570312 340.304688 75.570312 338.894531 75.394531 C 337.304688 75.394531 335.890625 75.394531 334.480469 75.394531 C 331.65625 75.394531 328.828125 75.570312 326.179688 75.570312 C 323.53125 75.570312 321.058594 75.75 318.589844 75.925781 C 313.644531 76.277344 309.054688 76.632812 304.640625 77.160156 C 300.046875 77.691406 295.457031 78.398438 290.691406 79.105469 C 285.921875 79.988281 280.800781 80.871094 275.152344 81.929688 C 272.328125 82.636719 269.5 83.339844 266.324219 84.046875 C 264.734375 84.402344 263.144531 84.753906 261.554688 85.285156 C 259.96875 85.8125 258.203125 86.167969 256.613281 86.695312 C 254.847656 87.226562 253.082031 87.753906 251.316406 88.285156 C 249.550781 88.816406 247.605469 89.34375 245.664062 90.050781 C 241.78125 91.464844 237.71875 92.699219 233.480469 94.289062 C 216.175781 100.644531 203.992188 107.179688 193.929688 112.476562 C 191.457031 113.886719 189.164062 115.300781 186.867188 116.535156 C 184.570312 117.773438 182.453125 119.007812 180.332031 120.421875 C 178.214844 121.65625 176.273438 123.070312 174.332031 124.304688 C 172.386719 125.542969 170.445312 126.777344 168.679688 128.191406 C 164.972656 130.839844 161.085938 133.488281 157.378906 136.488281 C 155.4375 138.078125 153.496094 139.492188 151.375 141.257812 C 150.316406 142.140625 149.257812 142.84375 148.199219 143.726562 C 147.136719 144.609375 146.078125 145.496094 145.019531 146.554688 C 142.902344 148.496094 140.605469 150.4375 138.132812 152.558594 C 135.660156 154.675781 133.367188 157.148438 130.71875 159.441406 C 129.480469 160.679688 128.070312 161.914062 126.65625 163.328125 C 125.421875 164.742188 124.007812 166.152344 122.59375 167.566406 C 119.769531 170.566406 116.769531 173.570312 113.765625 177.101562 C 112.355469 178.867188 110.765625 180.457031 109.351562 182.222656 C 108.644531 183.105469 107.941406 183.808594 107.234375 184.691406 C 106.527344 185.574219 105.996094 186.28125 105.292969 187.164062 C 102.820312 190.34375 100.523438 193.34375 98.226562 196.167969 C 94.167969 201.996094 90.28125 207.117188 87.457031 212.0625 C 85.867188 214.535156 84.457031 216.828125 83.042969 218.949219 C 81.628906 221.242188 80.570312 223.363281 79.335938 225.480469 C 78.097656 227.597656 77.039062 229.71875 75.804688 231.660156 C 74.746094 233.78125 73.683594 235.722656 72.625 237.839844 C 71.566406 239.960938 70.507812 241.902344 69.445312 244.019531 C 68.386719 246.140625 67.503906 248.257812 66.445312 250.554688 C 65.386719 252.847656 64.503906 254.96875 63.445312 257.441406 C 62.382812 259.910156 61.5 262.382812 60.441406 265.03125 C 56.203125 275.625 51.789062 288.691406 47.730469 306.527344 C 43.667969 324.359375 41.902344 338.132812 41.019531 349.433594 C 40.84375 352.257812 40.488281 355.082031 40.3125 357.554688 C 40.136719 360.203125 40.136719 362.675781 39.960938 365.148438 C 39.785156 370.09375 39.605469 374.683594 39.605469 379.273438 C 39.429688 397.8125 39.253906 416.351562 39.253906 453.082031 C 39.253906 472.148438 38.902344 497.046875 38.019531 497.398438 C 36.957031 497.753906 36.253906 473.210938 36.253906 454.140625 C 36.253906 453.785156 36.253906 453.257812 36.253906 452.902344 C 36.429688 416 36.429688 397.636719 36.429688 379.097656 C 36.429688 374.507812 36.605469 369.914062 36.78125 364.972656 C 36.78125 362.5 36.957031 360.027344 36.957031 357.378906 C 37.136719 354.730469 37.3125 352.082031 37.664062 349.078125 C 38.546875 337.601562 40.3125 323.652344 44.550781 305.644531 C 48.789062 287.632812 53.378906 274.390625 57.617188 263.621094 C 58.675781 260.972656 59.558594 258.324219 60.617188 255.851562 C 61.679688 253.378906 62.738281 251.082031 63.796875 248.789062 C 64.855469 246.492188 65.738281 244.375 66.796875 242.253906 C 67.859375 240.136719 68.917969 238.015625 69.976562 236.074219 C 71.035156 233.957031 72.097656 231.835938 73.15625 229.894531 C 74.390625 227.777344 75.449219 225.832031 76.6875 223.714844 C 77.921875 221.597656 79.160156 219.300781 80.570312 217.183594 C 81.984375 214.886719 83.394531 212.589844 84.984375 210.117188 C 85.691406 208.882812 86.574219 207.648438 87.457031 206.410156 C 88.339844 205.175781 89.222656 203.9375 90.105469 202.527344 C 92.046875 199.878906 93.992188 197.054688 96.109375 194.226562 C 98.40625 191.402344 100.699219 188.402344 103.171875 185.222656 C 103.878906 184.339844 104.410156 183.632812 105.113281 182.75 C 105.820312 181.867188 106.527344 181.160156 107.234375 180.277344 C 108.644531 178.6875 110.058594 176.921875 111.648438 175.15625 C 114.648438 171.625 117.652344 168.625 120.476562 165.625 C 121.890625 164.210938 123.300781 162.621094 124.539062 161.386719 C 125.949219 159.972656 127.363281 158.738281 128.597656 157.5 C 131.246094 155.027344 133.542969 152.558594 136.015625 150.4375 C 138.488281 148.320312 140.78125 146.378906 142.902344 144.433594 C 145.019531 142.492188 147.316406 140.902344 149.257812 139.136719 C 151.375 137.546875 153.316406 135.960938 155.261719 134.371094 C 159.144531 131.367188 163.03125 128.898438 166.738281 126.070312 C 170.621094 123.421875 174.507812 121.128906 178.566406 118.480469 C 180.6875 117.066406 182.804688 116.007812 185.101562 114.59375 C 187.394531 113.359375 189.691406 111.945312 192.339844 110.53125 C 202.582031 105.234375 214.941406 98.878906 232.421875 92.347656 C 249.902344 85.988281 263.320312 82.8125 274.621094 80.339844 C 280.273438 79.28125 285.394531 78.398438 290.335938 77.515625 C 295.28125 76.984375 299.871094 76.277344 304.285156 75.75 C 308.878906 75.21875 313.46875 75.042969 318.410156 74.6875 C 320.882812 74.511719 323.355469 74.511719 326.003906 74.335938 C 328.652344 74.335938 331.300781 74.160156 334.304688 74.160156 C 345.78125 74.335938 359.730469 74.511719 378.09375 77.160156 C 379.152344 77.339844 380.386719 77.515625 381.449219 77.515625 C 382.507812 77.691406 383.566406 77.867188 384.625 78.042969 C 386.746094 78.398438 388.863281 78.75 390.804688 79.105469 C 392.746094 79.457031 394.691406 79.808594 396.632812 80.164062 C 398.574219 80.515625 400.339844 81.046875 402.105469 81.398438 C 405.636719 82.28125 408.992188 82.988281 411.996094 83.695312 C 415.171875 84.578125 417.996094 85.460938 420.824219 86.167969 C 431.945312 89.519531 440.597656 92.699219 449.074219 96.054688 C 457.550781 99.585938 466.023438 103.46875 476.265625 108.765625 C 486.332031 114.417969 498.515625 121.128906 513.347656 132.25 C 528.175781 143.375 538.417969 152.734375 546.71875 160.855469 C 550.777344 164.917969 554.308594 168.800781 557.839844 172.332031 C 561.019531 176.039062 564.199219 179.574219 567.199219 182.925781 C 570.023438 186.636719 573.027344 190.167969 576.027344 194.050781 C 578.851562 198.113281 582.03125 202.171875 585.210938 207.117188 C 588.386719 212.0625 591.917969 217.183594 595.449219 223.539062 C 599.160156 229.71875 602.867188 236.957031 606.929688 245.257812 C 614.875 262.03125 619.113281 275.273438 622.644531 286.222656 C 625.996094 297.34375 628.117188 306.351562 629.882812 315.355469 C 633.414062 333.542969 635.886719 352.082031 635.53125 388.984375 C 635.53125 462.792969 634.648438 462.4375 634.648438 536.246094 C 634.648438 543.660156 634.828125 549.488281 634.472656 549.488281 C 635.003906 549.488281 635.003906 543.660156 635.003906 536.597656 Z M 634.828125 786.621094 C 634.828125 718.464844 634.828125 718.289062 634.828125 650.132812 C 634.828125 640.953125 635.003906 632.300781 635.355469 631.945312 C 635.886719 631.59375 636.238281 623.648438 636.238281 632.828125 C 636.238281 633.359375 636.238281 649.957031 636.238281 650.484375 C 636.238281 718.640625 636.238281 718.820312 636.0625 786.796875 C 635.886719 820.875 635.886719 854.601562 635.710938 879.851562 C 635.53125 892.566406 635.53125 902.980469 635.355469 910.398438 C 635.179688 917.8125 635.179688 922.050781 635.003906 922.226562 C 634.828125 922.40625 634.648438 918.167969 634.648438 910.929688 C 634.648438 903.511719 634.648438 892.917969 634.648438 880.203125 C 634.828125 854.777344 634.828125 820.699219 634.828125 786.621094 Z M 634.828125 786.621094 " fill-opacity="1" fill-rule="nonzero"/><g clip-path="url(#774c6dcf5d)"><path fill="#272727" d="M 484.742188 127.835938 C 485.449219 127.835938 484.035156 127.128906 481.386719 125.71875 C 480.152344 125.011719 478.5625 124.304688 476.796875 123.421875 C 475.03125 122.539062 473.085938 121.65625 471.144531 120.773438 C 469.027344 119.890625 467.261719 118.832031 465.320312 118.125 C 463.554688 117.417969 461.789062 116.714844 460.375 116.183594 C 457.371094 114.949219 454.722656 113.886719 452.429688 113.003906 C 447.839844 111.417969 444.484375 110.179688 440.773438 108.945312 C 433.359375 106.648438 424.882812 103.46875 401.753906 99.054688 C 395.925781 97.820312 389.921875 97.289062 383.390625 96.40625 C 380.210938 95.878906 376.855469 95.878906 373.5 95.523438 C 371.734375 95.347656 370.148438 95.171875 368.382812 95.171875 C 366.617188 94.996094 364.851562 94.820312 363.085938 94.820312 C 359.554688 94.640625 355.84375 94.640625 352.3125 94.464844 C 350.546875 94.289062 348.605469 94.464844 346.664062 94.464844 C 344.722656 94.464844 342.957031 94.464844 341.011719 94.640625 C 339.070312 94.640625 337.128906 94.640625 335.1875 94.820312 C 333.242188 94.996094 331.300781 95.171875 329.359375 95.171875 C 327.417969 95.347656 325.476562 95.523438 323.355469 95.523438 C 321.414062 95.703125 319.292969 95.703125 317.351562 96.054688 C 284.863281 99.410156 248.84375 108.414062 213 126.777344 C 194.988281 135.960938 177.332031 147.261719 160.382812 160.855469 C 143.429688 174.453125 127.539062 190.519531 113.238281 208.53125 C 105.996094 217.535156 99.464844 227.246094 93.109375 237.3125 C 87.105469 247.550781 81.277344 258.144531 76.332031 269.269531 C 71.214844 280.21875 66.976562 291.871094 63.089844 303.703125 C 59.558594 315.53125 56.382812 327.714844 54.261719 340.25 C 51.789062 352.613281 50.730469 365.324219 49.671875 378.039062 C 49.496094 384.394531 49.140625 390.925781 49.140625 397.285156 C 49.140625 403.640625 49.140625 409.996094 49.140625 416.53125 C 49.140625 442.132812 48.964844 468.265625 48.964844 494.574219 C 48.789062 547.191406 48.789062 600.515625 48.613281 653.839844 C 48.613281 706.460938 47.90625 758.902344 47.90625 810.8125 C 47.90625 833.238281 48.082031 855.484375 48.257812 877.554688 C 48.433594 888.503906 48.433594 899.449219 48.613281 910.398438 C 48.789062 922.226562 48.789062 934.058594 48.964844 945.710938 C 58.148438 945.710938 67.328125 945.710938 76.332031 945.535156 C 123.832031 945.535156 170.269531 946.417969 214.058594 946.417969 C 262.617188 946.242188 308.699219 946.066406 350.902344 945.890625 C 390.980469 945.710938 428.0625 945.710938 460.550781 945.535156 C 493.039062 945.359375 521.820312 945.359375 545.304688 945.183594 C 592.097656 945.007812 580.441406 944.300781 616.992188 943.945312 C 629.882812 943.769531 646.125 943.59375 648.246094 942.886719 C 650.894531 942.003906 636.0625 940.589844 619.289062 940.414062 C 582.738281 940.0625 590.332031 940.589844 543.714844 940.238281 C 520.410156 940.238281 492.511719 940.0625 460.023438 939.886719 C 427.53125 939.707031 389.921875 940.238281 350.019531 940.0625 C 307.816406 939.886719 262.261719 939.707031 213.527344 939.707031 C 169.738281 939.707031 124.007812 939.53125 76.6875 939.53125 C 69.625 939.53125 62.5625 939.53125 55.320312 939.53125 C 55.5 919.226562 55.5 898.566406 55.675781 877.554688 C 55.675781 855.484375 55.851562 833.238281 55.851562 810.8125 C 55.675781 759.078125 55.5 706.636719 55.320312 654.015625 C 55.320312 600.515625 55.144531 547.367188 55.144531 494.75 C 55.144531 468.441406 54.96875 442.484375 54.96875 416.707031 C 54.96875 410.351562 54.96875 403.816406 54.96875 397.460938 C 54.96875 391.105469 55.144531 384.746094 55.320312 378.566406 C 56.203125 366.03125 57.265625 353.496094 59.558594 341.3125 C 61.5 329.128906 64.679688 317.121094 68.210938 305.46875 C 72.097656 293.8125 75.980469 282.511719 81.101562 271.566406 C 85.867188 260.617188 91.695312 250.199219 97.523438 240.136719 C 103.703125 230.246094 110.058594 220.535156 117.121094 211.707031 C 131.070312 193.699219 146.960938 177.628906 163.914062 164.210938 C 180.863281 150.613281 198.519531 139.492188 216.175781 130.308594 C 251.492188 112.121094 287.335938 102.585938 319.472656 99.054688 C 335.539062 97.46875 350.722656 97.113281 364.671875 97.46875 C 378.621094 98.171875 391.511719 99.410156 402.8125 101.527344 C 405.636719 102.058594 408.285156 102.410156 410.757812 102.941406 C 413.230469 103.46875 415.347656 104 417.46875 104.351562 C 421.527344 105.234375 425.0625 105.941406 427.886719 106.824219 C 430.886719 107.53125 433.359375 108.238281 435.476562 108.765625 C 436.539062 109.121094 437.597656 109.296875 438.65625 109.648438 C 439.539062 110.003906 440.597656 110.179688 441.480469 110.53125 C 445.191406 111.59375 448.367188 112.652344 452.957031 114.242188 C 455.253906 115.125 457.726562 116.007812 460.90625 117.242188 C 462.492188 117.773438 464.082031 118.480469 465.847656 119.183594 C 467.613281 119.890625 469.554688 120.773438 471.675781 121.65625 C 474.851562 123.070312 477.855469 124.304688 480.328125 125.542969 C 482.445312 126.953125 484.210938 127.660156 484.742188 127.835938 Z M 647.714844 544.367188 C 647.714844 535.714844 647.714844 535.363281 647.539062 524.238281 C 647.539062 518.765625 647.714844 509.40625 647.714844 501.636719 C 647.714844 493.867188 647.539062 486.980469 647.539062 477.445312 C 647.363281 458.378906 647.363281 434.1875 647.1875 408.40625 C 647.1875 405.230469 647.1875 401.875 647.1875 398.695312 C 647.1875 397.105469 647.1875 395.339844 647.1875 393.753906 C 647.1875 392.164062 647.1875 390.398438 647.007812 388.808594 C 646.832031 385.453125 646.832031 382.273438 646.65625 378.921875 C 646.480469 375.566406 646.125 372.386719 645.949219 369.03125 L 645.597656 364.089844 C 645.421875 362.5 645.242188 360.910156 645.066406 359.144531 C 644.714844 355.964844 644.183594 352.613281 643.832031 349.433594 C 643.300781 346.253906 642.773438 343.078125 642.242188 339.898438 C 641.710938 336.71875 641.183594 333.542969 640.300781 330.539062 C 634.828125 305.820312 626.703125 283.75 617.167969 264.148438 C 607.457031 244.550781 596.511719 227.421875 585.035156 212.414062 C 573.554688 197.230469 560.136719 183.808594 552.015625 176.21875 C 550.074219 174.273438 548.660156 172.863281 547.421875 171.980469 C 546.1875 170.921875 545.480469 170.214844 544.597656 169.507812 C 543.007812 168.09375 541.773438 166.859375 538.59375 164.210938 C 534.179688 160.679688 530.121094 156.972656 527.648438 154.675781 C 525.175781 152.558594 524.292969 151.496094 526.589844 152.734375 C 527.117188 153.085938 528.175781 153.792969 529.414062 154.675781 C 530.648438 155.734375 532.238281 156.792969 534.003906 158.207031 C 537.359375 160.679688 540.890625 163.503906 542.65625 165.09375 C 545.835938 167.742188 546.71875 168.449219 547.777344 169.15625 C 548.304688 169.507812 548.835938 170.039062 549.894531 170.742188 C 550.425781 171.097656 550.957031 171.625 551.660156 172.15625 C 552.367188 172.863281 553.25 173.570312 554.308594 174.453125 C 556.429688 176.394531 558.722656 178.511719 561.195312 180.808594 C 563.667969 183.105469 566.316406 185.929688 569.140625 188.753906 C 571.96875 191.578125 574.792969 194.757812 577.792969 198.113281 C 579.207031 199.878906 580.796875 201.46875 582.207031 203.234375 C 583.621094 205 585.210938 206.941406 586.621094 208.707031 C 598.453125 223.714844 611.34375 242.960938 621.9375 265.03125 C 624.410156 270.683594 627.234375 276.15625 629.351562 282.160156 C 630.410156 285.160156 631.648438 287.988281 632.882812 290.988281 C 633.945312 293.988281 635.003906 296.992188 635.886719 299.992188 C 636.414062 301.582031 636.945312 302.996094 637.476562 304.585938 L 638.710938 309.175781 L 641.359375 318.535156 C 642.066406 321.710938 642.773438 324.890625 643.476562 327.890625 L 644.539062 332.660156 L 645.421875 337.425781 C 645.949219 340.605469 646.480469 343.78125 647.007812 346.960938 C 647.539062 350.140625 647.890625 353.316406 648.246094 356.496094 C 649.128906 362.851562 649.480469 369.210938 650.011719 375.566406 C 650.363281 378.742188 650.1875 381.921875 650.363281 385.101562 C 650.363281 388.277344 650.542969 391.457031 650.542969 394.457031 C 650.542969 400.640625 650.542969 406.820312 650.363281 412.820312 C 650.1875 437.011719 650.011719 459.613281 649.835938 478.683594 C 649.835938 488.21875 649.835938 495.988281 649.480469 502.34375 C 649.128906 508.699219 649.128906 514.351562 648.953125 519.824219 C 648.777344 530.949219 648.597656 529.359375 648.421875 538.011719 C 648.246094 544.015625 648.246094 553.195312 647.894531 550.722656 C 647.890625 549.664062 647.714844 547.191406 647.714844 544.367188 Z M 647.539062 937.414062 C 647.1875 914.8125 647.539062 914.460938 647.363281 886.207031 C 647.1875 857.957031 646.480469 820.875 646.480469 783.265625 C 646.480469 745.65625 646.480469 705.578125 646.832031 677.324219 C 647.011719 663.199219 647.011719 650.132812 647.1875 642.011719 C 647.363281 633.710938 647.539062 638.304688 647.714844 632.121094 C 647.894531 622.941406 648.421875 611.464844 648.777344 615.878906 C 648.953125 617.820312 649.128906 624.707031 649.304688 628.238281 C 649.480469 634.417969 649.480469 632.828125 649.660156 641.128906 C 649.660156 649.425781 649.835938 663.199219 649.835938 677.324219 C 650.011719 705.578125 649.480469 744.773438 649.480469 782.382812 C 649.480469 819.992188 649.304688 856.367188 648.953125 884.617188 C 648.777344 912.871094 648.777344 908.457031 648.421875 931.058594 C 648.421875 936 648.246094 944.476562 648.070312 942.355469 C 647.890625 941.472656 647.539062 939.53125 647.539062 937.414062 Z M 647.539062 937.414062 " fill-opacity="1" fill-rule="nonzero"/></g><path fill="#1f5014" d="M 361.847656 85.988281 C 354.960938 81.222656 347.898438 76.984375 340.484375 72.570312 C 336.773438 70.453125 332.890625 68.507812 329.007812 66.566406 L 323.179688 63.566406 C 321.238281 62.683594 319.117188 61.800781 317.175781 60.917969 C 313.820312 59.503906 310.464844 58.089844 307.109375 56.679688 C 303.578125 55.265625 300.046875 54.207031 296.515625 52.972656 C 292.808594 51.910156 289.101562 50.5 285.394531 49.617188 C 281.683594 48.734375 277.800781 47.675781 273.738281 46.96875 C 269.855469 46.085938 265.792969 45.378906 261.554688 44.847656 C 257.496094 44.320312 253.257812 43.613281 248.84375 43.261719 C 240.191406 42.730469 231.1875 42.199219 222.003906 42.554688 C 212.824219 42.730469 203.816406 43.789062 194.460938 44.847656 C 189.867188 45.378906 185.101562 46.261719 180.511719 47.144531 L 173.449219 48.378906 L 166.382812 49.96875 C 147.316406 54.03125 128.246094 60.742188 109.527344 68.6875 C 105.820312 70.273438 102.113281 72.21875 98.40625 73.984375 C 99.289062 74.160156 100.171875 73.804688 101.230469 73.453125 L 113.414062 68.6875 C 117.472656 67.097656 121.710938 65.859375 125.773438 64.273438 C 150.316406 55.796875 175.566406 50.144531 199.578125 47.851562 C 223.945312 45.554688 247.253906 46.4375 268.089844 50.675781 C 269.679688 51.027344 271.796875 51.027344 272.328125 52.089844 C 270.5625 52.617188 268.972656 52.617188 267.382812 52.617188 C 259.96875 52.972656 252.550781 53.5 244.957031 54.738281 C 241.25 55.265625 237.367188 55.972656 233.65625 56.679688 C 229.949219 57.5625 226.242188 58.445312 222.355469 59.328125 C 205.582031 63.917969 188.984375 69.921875 173.449219 78.042969 L 167.621094 81.046875 L 161.96875 84.222656 C 158.261719 86.34375 154.378906 88.636719 150.847656 90.933594 C 143.605469 95.703125 136.367188 100.46875 129.65625 105.941406 C 127.890625 107.355469 126.125 108.945312 124.539062 110.355469 C 123.300781 111.417969 122.417969 112.652344 122.773438 113.359375 C 123.125 114.242188 124.539062 113.886719 126.125 113.359375 C 127.1875 113.003906 128.421875 112.476562 129.480469 111.769531 C 131.953125 110.355469 134.601562 109.121094 137.074219 107.707031 C 140.253906 105.765625 143.605469 104.175781 146.960938 102.585938 C 150.316406 100.820312 153.496094 99.234375 156.851562 97.46875 C 160.203125 95.878906 163.558594 94.289062 166.914062 92.699219 L 171.859375 90.226562 L 176.980469 88.109375 L 187.21875 83.695312 C 190.574219 82.28125 194.105469 81.046875 197.636719 79.632812 C 204.523438 76.808594 211.585938 74.511719 218.648438 72.039062 C 241.957031 64.09375 266.324219 59.152344 290.511719 58.445312 C 294.398438 58.445312 297.398438 58.796875 300.226562 59.859375 C 318.058594 66.566406 333.773438 74.6875 348.605469 84.046875 C 359.375 90.757812 369.617188 97.996094 379.859375 105.414062 C 384.980469 109.121094 389.921875 113.003906 395.042969 116.890625 L 402.636719 122.894531 C 405.109375 124.835938 407.757812 126.777344 410.230469 128.898438 C 412.523438 130.664062 412.171875 131.015625 409.167969 130.839844 L 408.109375 130.839844 C 402.636719 130.484375 397.339844 130.308594 392.042969 130.132812 C 386.746094 130.132812 381.269531 130.132812 376.148438 130.308594 C 372.972656 130.484375 370.324219 130.132812 367.320312 129.074219 C 340.835938 120.773438 312.410156 115.832031 283.273438 115.652344 C 270.207031 115.652344 257.140625 116.183594 243.898438 118.125 C 237.1875 118.832031 230.65625 120.246094 224.125 121.65625 C 220.769531 122.363281 217.589844 123.246094 214.234375 124.128906 C 210.878906 125.011719 207.527344 125.894531 204.347656 127.128906 C 203.109375 127.484375 201.875 127.835938 200.640625 128.542969 C 200.992188 128.898438 201.523438 128.71875 202.050781 128.542969 C 208.054688 126.953125 214.410156 126.070312 220.414062 124.835938 C 223.417969 124.304688 226.59375 123.953125 229.597656 123.421875 C 232.597656 123.070312 235.777344 122.539062 238.777344 122.1875 C 276.566406 117.417969 313.820312 120.949219 348.074219 130.308594 C 349.136719 130.484375 351.078125 130.664062 351.078125 131.546875 C 351.078125 132.429688 348.957031 132.074219 347.898438 132.429688 C 347.546875 132.605469 347.191406 132.605469 346.839844 132.605469 C 329.710938 134.898438 312.9375 138.960938 297.398438 144.433594 C 281.863281 149.910156 266.851562 156.617188 253.964844 165.269531 C 253.257812 165.800781 252.199219 166.152344 251.667969 167.210938 C 254.140625 165.800781 256.613281 164.742188 259.085938 163.503906 C 261.378906 162.269531 263.851562 161.03125 266.148438 159.972656 C 292.984375 146.730469 323.355469 138.609375 355.136719 135.605469 C 358.140625 135.429688 360.964844 135.253906 363.789062 135.605469 C 366.617188 135.960938 369.265625 136.664062 372.265625 137.726562 C 385.863281 142.84375 399.105469 148.671875 411.640625 155.382812 C 424.175781 162.09375 436.359375 169.507812 448.015625 177.628906 C 460.902344 186.636719 473.085938 196.523438 484.566406 207.117188 C 496.042969 217.710938 506.636719 228.835938 516.699219 240.664062 C 517.230469 241.371094 518.113281 242.078125 517.9375 242.785156 C 517.230469 242.960938 516.523438 242.253906 515.816406 241.726562 C 512.640625 239.429688 509.285156 237.488281 506.105469 235.546875 L 501.164062 232.542969 L 496.21875 229.71875 C 466.378906 213.121094 434.417969 203.054688 403.519531 200.9375 C 397.164062 200.40625 390.628906 200.230469 384.449219 200.585938 C 383.214844 200.761719 381.976562 200.761719 380.917969 201.289062 C 378.976562 202.171875 379.152344 203.585938 381.09375 204.820312 C 381.800781 205.175781 382.683594 205.527344 383.390625 205.882812 C 385.863281 206.585938 388.15625 207.46875 390.628906 208 C 392.042969 208.351562 393.632812 208.53125 395.042969 208.882812 L 399.457031 209.941406 C 402.460938 210.648438 405.285156 211.355469 408.285156 212.238281 C 425.589844 216.828125 442.71875 222.300781 459.667969 228.660156 C 472.558594 233.25 485.09375 238.371094 497.808594 244.375 L 503.632812 247.199219 C 505.578125 248.257812 507.34375 249.316406 509.285156 250.378906 L 514.933594 253.730469 C 516.878906 254.96875 518.644531 256.203125 520.410156 257.441406 L 525.882812 261.5 C 527.824219 262.914062 529.414062 264.328125 531.179688 265.914062 C 532.945312 267.328125 534.710938 268.917969 536.476562 270.507812 C 538.242188 272.09375 540.007812 274.039062 541.773438 275.804688 C 543.714844 277.746094 545.304688 279.6875 546.894531 281.808594 C 554.664062 293.285156 562.078125 304.761719 569.140625 316.0625 L 572.851562 322.066406 L 576.382812 328.066406 C 578.855469 332.128906 580.972656 336.191406 583.269531 340.25 C 587.503906 348.375 591.742188 356.671875 595.273438 365.148438 C 599.335938 374.683594 602.867188 384.570312 606.046875 394.636719 C 609.753906 406.996094 612.933594 419.707031 615.757812 432.773438 C 616.109375 434.011719 616.464844 435.601562 616.285156 437.1875 C 615.402344 436.304688 615.050781 434.894531 614.699219 433.832031 L 610.460938 423.59375 C 609.046875 420.238281 607.457031 416.882812 606.046875 413.527344 C 599.867188 400.460938 592.625 388.632812 584.855469 378.039062 C 576.910156 367.265625 568.257812 357.730469 558.902344 348.726562 C 556.78125 346.609375 554.839844 344.3125 552.722656 341.839844 C 540.714844 326.480469 526.941406 311.117188 512.464844 295.402344 L 509.636719 292.402344 C 509.109375 291.871094 508.753906 291.519531 508.226562 290.988281 L 506.988281 289.753906 L 501.867188 284.632812 C 500.28125 282.867188 498.335938 281.277344 496.75 279.6875 C 494.984375 278.097656 493.394531 276.332031 491.628906 274.742188 L 486.332031 269.976562 L 483.683594 267.679688 L 481.035156 265.386719 C 479.269531 263.796875 477.503906 262.382812 475.738281 260.792969 C 473.96875 259.382812 472.027344 257.96875 470.261719 256.378906 C 466.730469 253.378906 462.847656 250.730469 459.316406 247.90625 C 457.550781 246.492188 455.605469 245.257812 453.664062 243.84375 C 451.722656 242.609375 449.957031 241.195312 448.015625 239.960938 C 444.128906 237.488281 440.421875 234.839844 436.359375 232.71875 C 434.417969 231.660156 432.476562 230.425781 430.359375 229.1875 L 424.355469 226.011719 L 421.527344 224.421875 L 418.703125 223.007812 L 412.878906 220.183594 C 410.933594 219.300781 408.992188 218.59375 407.050781 217.710938 C 405.109375 217.003906 403.164062 216.121094 401.046875 215.417969 C 399.8125 215.0625 398.574219 214.53125 396.984375 214.355469 C 397.867188 215.0625 398.75 215.417969 399.457031 215.769531 C 408.464844 220.007812 417.644531 224.421875 426.296875 229.542969 L 429.476562 231.308594 C 430.535156 231.835938 431.59375 232.542969 432.652344 233.25 L 438.832031 237.132812 L 444.835938 241.195312 C 445.894531 241.902344 446.957031 242.609375 447.839844 243.3125 L 450.839844 245.433594 C 458.785156 251.082031 466.378906 257.261719 473.96875 263.621094 C 482.269531 270.507812 490.039062 277.921875 497.984375 285.339844 C 500.808594 288.164062 503.457031 290.988281 506.28125 293.8125 L 515.640625 304.054688 L 524.824219 314.117188 C 527.824219 317.472656 530.828125 320.828125 533.652344 324.183594 C 534.359375 325.066406 535.242188 325.773438 535.59375 327.007812 C 534.359375 326.65625 533.652344 325.773438 532.769531 325.066406 C 529.945312 322.769531 526.765625 320.300781 523.941406 318.003906 C 520.9375 315.707031 517.9375 313.234375 514.757812 310.941406 C 510.699219 307.761719 506.28125 304.585938 502.046875 301.40625 L 498.867188 299.109375 L 496.042969 297.34375 L 490.390625 293.8125 C 486.683594 291.519531 482.621094 289.398438 478.914062 287.28125 L 473.085938 284.277344 C 471.144531 283.394531 469.378906 282.160156 467.4375 281.453125 L 460.199219 278.097656 C 457.726562 277.039062 455.253906 275.980469 452.957031 274.921875 C 451.722656 274.390625 450.664062 273.859375 449.425781 273.332031 L 445.71875 271.917969 L 442.1875 270.507812 L 440.421875 269.800781 L 438.65625 269.269531 L 431.417969 266.796875 L 424.175781 264.855469 C 421.882812 264.148438 419.410156 263.621094 416.9375 263.089844 C 414.464844 262.558594 412.171875 262.03125 409.699219 261.675781 C 398.046875 259.558594 386.390625 258.5 375.265625 259.558594 C 374.382812 259.734375 373.5 259.558594 372.441406 260.265625 C 374.03125 260.441406 375.445312 260.441406 376.855469 260.617188 C 378.269531 260.792969 379.503906 260.972656 380.917969 261.148438 C 401.222656 262.914062 422.589844 267.859375 443.421875 276.6875 C 446.425781 277.746094 449.25 279.335938 452.253906 280.570312 C 455.253906 281.804688 458.078125 283.394531 461.082031 284.808594 C 461.785156 285.160156 462.671875 285.339844 462.847656 286.222656 C 461.964844 286.574219 461.257812 286.222656 460.375 286.222656 C 457.371094 285.867188 454.546875 285.515625 451.898438 285.160156 C 449.074219 284.984375 446.25 284.984375 443.421875 285.160156 C 442.011719 285.160156 440.773438 285.339844 439.363281 285.339844 C 437.949219 285.515625 436.539062 285.691406 435.300781 285.867188 C 432.652344 286.222656 430.003906 286.75 427.355469 287.457031 C 422.410156 288.691406 417.820312 290.28125 413.40625 292.222656 C 411.996094 292.753906 410.757812 293.460938 409.699219 294.695312 C 408.285156 296.285156 408.816406 297.519531 410.582031 298.226562 C 411.816406 298.582031 413.230469 298.582031 414.644531 298.582031 C 415.703125 298.582031 416.761719 298.582031 417.996094 298.402344 L 421.351562 298.226562 C 423.472656 298.226562 425.765625 298.050781 428.0625 297.875 C 445.71875 296.816406 464.082031 297.875 482.976562 297.699219 C 484.210938 297.699219 485.449219 298.226562 486.683594 298.933594 L 492.863281 302.820312 C 493.394531 303.171875 493.921875 303.703125 494.628906 304.054688 L 496.394531 305.46875 L 499.925781 308.117188 C 504.695312 311.824219 509.109375 315.355469 513.875 318.886719 C 522.878906 326.125 531.710938 333.1875 540.007812 340.605469 C 546.539062 346.429688 553.074219 352.433594 558.902344 358.792969 C 560.488281 360.378906 561.902344 361.96875 563.316406 363.558594 L 567.554688 368.503906 C 570.203125 371.859375 573.027344 375.210938 575.675781 378.742188 C 576.382812 379.804688 577.441406 380.863281 577.96875 382.453125 C 576.910156 382.453125 576.203125 381.570312 575.5 381.039062 C 572.496094 378.742188 569.496094 376.449219 566.316406 374.507812 C 563.136719 372.5625 560.136719 370.796875 556.957031 369.210938 C 543.363281 362.324219 529.589844 357.378906 515.289062 352.789062 C 512.816406 351.90625 510.167969 351.199219 507.695312 350.316406 C 505.222656 349.609375 502.574219 348.902344 499.925781 348.195312 C 497.277344 347.492188 494.804688 346.960938 492.332031 346.429688 C 489.683594 345.902344 487.214844 345.371094 484.566406 344.84375 C 482.445312 344.488281 480.503906 344.136719 478.386719 344.3125 C 476.796875 344.488281 475.558594 344.84375 475.382812 346.785156 C 475.207031 348.726562 476.441406 350.140625 477.855469 351.550781 C 479.265625 352.964844 480.679688 354.199219 482.269531 355.261719 C 483.859375 356.496094 485.269531 357.554688 486.859375 358.613281 C 496.21875 364.972656 505.046875 369.738281 513.875 373.445312 C 516.171875 374.328125 518.289062 375.210938 520.410156 376.09375 C 522.527344 376.800781 525 377.683594 527.117188 378.390625 C 531.53125 379.804688 536.300781 380.863281 540.714844 381.921875 C 544.421875 382.628906 548.308594 383.511719 552.015625 384.394531 C 555.722656 385.453125 559.605469 386.511719 563.316406 387.925781 C 573.378906 391.808594 583.269531 397.460938 592.273438 407.171875 C 593.683594 408.761719 594.921875 410.527344 595.980469 412.644531 C 600.925781 423.0625 605.515625 434.011719 609.398438 445.664062 C 613.285156 457.316406 616.816406 469.324219 619.996094 481.859375 C 624.230469 498.8125 627.585938 516.292969 631.117188 533.597656 C 632.882812 542.25 634.121094 551.253906 634.828125 560.257812 C 636.0625 574.207031 636.769531 587.980469 637.652344 601.929688 C 639.0625 622.234375 639.417969 642.1875 638.003906 662.140625 C 637.652344 667.613281 637.476562 673.265625 637.296875 678.738281 C 637.121094 681.914062 637.121094 685.269531 637.828125 688.449219 C 639.769531 697.277344 645.242188 700.277344 648.777344 694.277344 C 650.011719 692.15625 650.71875 689.507812 651.425781 686.683594 C 652.128906 682.796875 652.660156 678.738281 652.835938 674.5 C 653.71875 660.375 653.71875 646.070312 653.191406 631.769531 C 652.484375 614.996094 651.246094 598.222656 649.835938 581.445312 C 648.953125 571.558594 648.777344 562.023438 648.953125 552.3125 C 648.953125 550.722656 649.128906 549.132812 649.480469 547.722656 C 652.308594 537.480469 654.601562 526.710938 656.898438 515.9375 C 660.253906 500.222656 663.605469 484.6875 667.492188 469.5 C 672.257812 450.609375 677.554688 432.421875 681.972656 413.175781 C 686.738281 392.515625 690.09375 370.09375 689.5625 345.195312 C 689.386719 340.78125 689.210938 336.367188 688.855469 331.953125 C 688.328125 327.539062 687.796875 322.949219 687.089844 318.179688 C 686.738281 316.0625 686.207031 313.941406 685.324219 311.648438 C 684.089844 308.820312 682.675781 307.761719 681.617188 308.820312 C 681.085938 309.351562 680.910156 310.234375 680.734375 311.117188 C 680.558594 312.882812 680.203125 314.648438 680.027344 316.589844 C 678.261719 336.015625 674.554688 354.378906 668.550781 370.09375 C 666.960938 374.328125 665.375 378.742188 663.605469 382.980469 C 661.839844 387.21875 660.253906 391.632812 658.664062 396.046875 C 649.480469 421.472656 643.476562 449.019531 642.59375 481.859375 C 642.417969 489.277344 642.59375 496.691406 642.59375 504.285156 C 642.59375 505.167969 642.773438 506.226562 642.066406 506.757812 C 641.890625 506.050781 641.710938 505.523438 641.710938 505.167969 C 639.59375 490.511719 637.296875 476.035156 634.648438 461.554688 C 632 447.078125 629.175781 432.773438 625.820312 418.648438 C 625.113281 416.175781 625.292969 414.234375 625.820312 412.117188 C 629.882812 396.046875 633.414062 379.625 635.53125 362.675781 C 637.121094 350.667969 638.003906 338.484375 638.179688 325.949219 C 638.179688 313.414062 637.476562 300.699219 636.0625 287.632812 C 634.828125 278.273438 634.472656 281.101562 637.828125 275.804688 C 641.890625 269.269531 646.125 263.089844 651.425781 258.5 C 655.660156 254.792969 659.898438 251.082031 664.136719 247.550781 C 667.84375 244.375 670.847656 240.488281 673.140625 235.898438 C 674.203125 233.601562 675.261719 231.128906 675.96875 228.480469 C 676.671875 225.832031 677.203125 223.007812 677.554688 220.183594 C 678.261719 214.355469 678.261719 207.648438 677.734375 200.761719 C 677.378906 197.230469 676.851562 193.519531 676.320312 189.8125 C 675.613281 186.105469 674.90625 182.222656 673.847656 178.335938 C 673.496094 176.746094 672.964844 174.980469 672.082031 173.214844 C 669.964844 169.15625 667.316406 167.390625 666.433594 169.332031 C 665.726562 170.742188 665.375 172.6875 665.019531 174.453125 C 664.492188 178.511719 663.078125 181.867188 661.839844 185.222656 C 660.605469 188.578125 659.191406 191.933594 657.78125 195.109375 C 654.957031 201.46875 651.777344 207.648438 648.070312 213.472656 C 644.359375 219.476562 641.007812 225.832031 638.179688 232.898438 C 635.53125 239.960938 633.238281 247.726562 632.179688 256.378906 C 632.179688 256.910156 632.179688 257.617188 631.296875 257.085938 C 630.589844 255.320312 630.414062 253.910156 630.058594 252.320312 C 629 247.375 627.765625 242.253906 626.527344 237.3125 C 625.292969 232.367188 623.878906 227.246094 622.464844 222.300781 C 621.761719 219.832031 620.878906 217.359375 620.171875 214.886719 C 619.816406 213.648438 619.464844 212.414062 618.933594 211 L 617.347656 206.941406 C 616.285156 204.117188 615.050781 201.46875 613.992188 198.640625 L 612.226562 194.402344 C 611.695312 192.992188 610.988281 191.578125 610.285156 190.34375 C 600.042969 168.09375 586.269531 146.199219 568.4375 125.542969 C 560.84375 116.714844 553.25 108.0625 543.714844 100.117188 C 542.65625 99.234375 541.773438 98.171875 540.183594 97.644531 C 540.183594 98.527344 541.421875 99.585938 542.125 100.46875 C 545.128906 104.175781 548.128906 107.882812 551.308594 111.769531 C 554.488281 115.476562 557.839844 119.363281 560.84375 123.246094 C 573.203125 138.253906 583.621094 154.144531 592.449219 170.214844 C 594.570312 174.273438 596.863281 178.335938 598.804688 182.222656 C 600.75 186.28125 602.691406 190.34375 604.457031 194.402344 C 606.398438 198.464844 607.8125 202.527344 609.398438 206.585938 L 611.695312 212.765625 L 612.753906 215.769531 C 613.109375 216.828125 613.285156 217.710938 613.636719 218.59375 C 620.878906 243.667969 626.351562 268.917969 628.292969 293.636719 C 628.292969 294.871094 628.824219 296.285156 627.941406 296.816406 C 627.058594 296.109375 626.878906 295.050781 626.351562 293.988281 C 625.292969 291.519531 624.230469 289.046875 623.171875 286.75 C 615.582031 269.800781 606.222656 254.085938 596.15625 239.253906 C 593.507812 235.546875 591.214844 232.011719 588.035156 227.953125 L 583.621094 222.125 C 582.207031 220.183594 580.621094 218.242188 579.03125 216.476562 C 575.851562 212.765625 572.671875 209.234375 569.320312 205.703125 C 565.964844 202.171875 562.433594 198.820312 558.902344 195.464844 C 547.070312 184.691406 534.535156 175.15625 521.46875 166.859375 C 508.226562 158.738281 494.453125 151.851562 480.328125 146.375 C 462.140625 139.3125 443.777344 134.722656 425.414062 132.25 C 422.765625 131.898438 421 131.015625 419.058594 129.425781 C 414.996094 126.070312 410.933594 122.539062 406.875 119.363281 C 402.8125 116.183594 398.75 112.828125 394.515625 109.648438 C 393.277344 108.765625 392.21875 107.707031 391.6875 106.648438 C 387.980469 98.171875 384.980469 89.699219 384.625 81.574219 C 384.449219 76.277344 384.800781 70.980469 384.273438 65.507812 C 383.917969 60.210938 382.859375 54.738281 380.917969 49.261719 C 379.503906 45.554688 377.738281 41.847656 375.445312 38.316406 C 373.148438 34.785156 370.324219 31.078125 367.320312 27.542969 C 360.4375 19.421875 353.019531 11.652344 343.132812 4.0625 C 341.71875 3 340.128906 1.941406 338.011719 1.234375 C 334.65625 0 330.773438 0.351562 329.710938 2.117188 C 328.828125 3.355469 329.359375 4.589844 329.710938 5.828125 C 331.65625 11.652344 333.597656 17.304688 335.539062 23.128906 L 340.835938 39.023438 C 342.601562 44.320312 344.542969 49.617188 346.839844 55.089844 C 349.136719 60.5625 351.960938 65.859375 355.136719 71.15625 C 358.492188 76.453125 362.203125 81.929688 366.792969 87.226562 C 367.320312 87.753906 367.851562 88.285156 367.675781 89.34375 C 365.027344 88.285156 363.4375 87.050781 361.847656 85.988281 Z M 494.628906 238.015625 C 468.144531 226.714844 442.011719 217.359375 414.996094 209.941406 C 414.289062 209.765625 413.582031 209.589844 413.054688 209.414062 C 412.878906 209.414062 412.699219 209.234375 412.523438 209.058594 C 412.523438 208.53125 413.230469 208.707031 413.582031 208.882812 C 427.886719 211.707031 442.1875 214.179688 456.3125 219.652344 L 462.492188 221.949219 L 468.496094 224.773438 C 470.4375 225.65625 472.558594 226.539062 474.5 227.597656 L 480.503906 230.601562 C 485.269531 232.898438 489.683594 235.367188 494.453125 237.664062 C 495.160156 238.015625 496.042969 238.546875 496.570312 238.898438 C 498.867188 239.78125 501.164062 240.84375 503.457031 241.902344 C 505.753906 243.136719 508.046875 244.195312 510.167969 245.609375 C 513.34375 247.550781 516.699219 249.496094 519.878906 251.613281 L 529.414062 258.144531 C 530.648438 259.027344 531.886719 259.910156 532.414062 261.5 C 531.710938 261.855469 531.179688 261.148438 530.648438 260.792969 C 528.175781 258.675781 525.527344 256.734375 523.058594 254.96875 L 519.171875 252.144531 L 515.113281 249.671875 C 512.460938 248.082031 509.8125 246.316406 507.164062 244.902344 L 499.042969 240.488281 C 498.160156 240.136719 497.453125 239.605469 496.570312 238.898438 C 495.867188 238.546875 495.160156 238.371094 494.628906 238.015625 Z M 557.488281 205.175781 C 555.191406 203.410156 553.074219 201.644531 550.777344 200.054688 L 543.890625 195.289062 C 539.476562 192.109375 534.710938 189.460938 529.945312 186.8125 C 528.179688 185.929688 526.589844 185.046875 524.824219 184.164062 C 523.058594 183.457031 521.292969 182.574219 519.703125 181.867188 C 516.347656 180.457031 512.992188 179.21875 509.636719 178.160156 C 506.28125 177.277344 502.929688 176.570312 499.75 175.863281 C 498.160156 175.511719 496.570312 175.335938 494.984375 175.15625 C 493.394531 174.980469 491.804688 174.980469 490.214844 174.804688 C 487.742188 174.804688 485.449219 174.804688 483.328125 175.15625 C 482.269531 175.335938 481.210938 175.511719 480.679688 176.21875 C 479.621094 177.277344 480.328125 178.511719 482.269531 179.925781 C 484.035156 181.160156 485.800781 181.867188 487.566406 182.398438 C 491.628906 183.808594 495.335938 185.046875 499.398438 186.105469 C 513.875 190.34375 528.707031 195.464844 543.007812 202.878906 L 547.246094 205 L 551.308594 207.292969 C 554.132812 208.882812 556.78125 210.472656 559.605469 212.238281 C 562.433594 214.003906 565.082031 215.945312 567.730469 217.886719 C 570.378906 219.832031 573.203125 221.773438 575.851562 224.066406 C 578.148438 226.011719 580.265625 228.128906 582.207031 230.777344 L 585.210938 234.664062 C 586.09375 235.898438 586.976562 237.132812 587.859375 238.371094 L 592.980469 245.785156 C 596.335938 250.90625 599.511719 256.027344 602.691406 261.148438 C 608.871094 271.566406 614.699219 282.511719 619.816406 293.8125 C 621.054688 296.460938 622.113281 299.289062 623.347656 301.9375 L 625.113281 305.996094 L 626.703125 310.234375 C 628.117188 313.589844 628.644531 316.414062 628.644531 319.417969 C 628.46875 335.835938 626.703125 351.90625 624.230469 367.445312 C 623.703125 371.152344 622.996094 374.859375 622.464844 378.566406 C 621.761719 382.273438 621.054688 385.984375 620.523438 389.691406 C 620.347656 390.574219 620.171875 391.28125 619.996094 392.164062 C 619.816406 392.871094 619.816406 394.28125 619.289062 394.105469 C 618.40625 394.105469 618.230469 392.691406 617.875 391.632812 C 614.167969 379.804688 609.753906 368.328125 604.632812 357.203125 C 598.101562 342.898438 590.507812 329.128906 582.03125 315.707031 C 574.792969 304.054688 567.199219 292.753906 559.253906 281.277344 C 555.371094 275.625 551.308594 269.976562 547.246094 264.148438 C 545.304688 261.324219 543.1875 258.675781 541.246094 256.027344 L 538.242188 251.964844 L 535.0625 248.082031 C 523.585938 233.78125 512.285156 220.007812 500.457031 206.765625 C 488.625 193.519531 476.441406 180.632812 463.199219 168.273438 C 452.957031 158.738281 442.71875 149.554688 432.300781 140.550781 C 431.417969 139.667969 429.652344 138.785156 430.003906 138.078125 C 430.359375 137.371094 432.300781 137.902344 433.710938 138.253906 C 468.851562 144.789062 503.988281 160.148438 534.886719 183.457031 L 540.890625 188.046875 C 542.832031 189.636719 544.777344 191.226562 546.542969 192.816406 L 552.191406 197.757812 C 554.132812 199.347656 555.898438 201.289062 557.664062 203.054688 C 558.902344 204.292969 560.3125 205.527344 561.726562 207.46875 C 559.960938 207.46875 558.722656 206.234375 557.488281 205.175781 Z M 647.1875 509.40625 C 646.65625 494.042969 646.832031 478.683594 648.070312 463.851562 C 650.1875 439.660156 655.308594 419.003906 662.019531 399.578125 C 665.195312 390.75 668.550781 382.628906 671.554688 374.152344 C 673.496094 368.503906 675.613281 362.675781 677.027344 356.496094 C 678.617188 350.316406 679.851562 343.960938 680.910156 337.074219 C 681.085938 336.367188 681.265625 335.660156 681.441406 334.601562 C 682.5 336.71875 682.324219 337.957031 682.324219 339.367188 C 682.675781 346.960938 682.324219 354.199219 681.441406 360.910156 C 679.5 375.035156 676.851562 388.984375 674.023438 402.40625 C 671.023438 415.824219 667.492188 428.890625 663.605469 441.425781 C 657.074219 462.4375 651.601562 484.15625 648.421875 508.171875 C 648.246094 509.40625 648.246094 510.640625 647.539062 511.703125 C 647.1875 510.640625 647.1875 509.9375 647.1875 509.40625 Z M 469.027344 182.574219 C 456.84375 173.214844 444.128906 164.5625 430.710938 156.792969 C 417.292969 149.027344 403.34375 142.140625 388.6875 136.3125 C 388.332031 136.136719 387.980469 136.136719 387.628906 135.960938 C 386.921875 135.605469 386.039062 135.429688 386.039062 134.898438 C 386.039062 134.371094 386.921875 134.371094 387.628906 134.371094 C 388.332031 134.371094 389.039062 134.371094 389.746094 134.371094 C 394.160156 134.546875 398.574219 134.722656 403.164062 135.078125 C 407.578125 135.429688 411.996094 135.960938 416.585938 136.3125 C 419.058594 136.488281 420.824219 137.371094 422.589844 138.785156 C 438.65625 152.203125 454.195312 166.152344 469.203125 181.160156 C 470.085938 182.042969 470.792969 182.75 471.5 183.632812 C 471.675781 183.808594 471.675781 183.988281 471.851562 184.339844 C 470.617188 183.988281 469.910156 183.28125 469.027344 182.574219 Z M 685.503906 361.617188 C 684.796875 374.328125 683.207031 386.335938 681.265625 397.8125 C 679.144531 409.289062 676.496094 420.414062 673.671875 431.183594 C 666.960938 456.613281 660.253906 481.859375 654.777344 508.523438 C 653.191406 516.292969 651.425781 523.886719 649.835938 531.476562 C 649.660156 532.535156 649.480469 533.949219 648.597656 534.480469 C 648.070312 532.535156 648.246094 530.769531 648.421875 529.183594 C 650.71875 511.171875 653.542969 493.691406 657.25 476.917969 C 660.78125 460.144531 665.195312 443.898438 670.316406 428.183594 C 677.027344 407.523438 682.148438 384.570312 684.621094 359.675781 C 684.972656 354.554688 685.324219 349.078125 685.324219 343.78125 L 685.324219 341.3125 C 685.503906 343.078125 685.679688 344.84375 685.855469 346.609375 C 685.855469 348.375 686.03125 349.964844 686.03125 351.730469 C 685.679688 355.082031 685.679688 358.4375 685.503906 361.617188 Z M 267.207031 57.5625 C 262.085938 58.269531 256.964844 58.972656 252.019531 60.035156 C 246.902344 61.09375 241.957031 62.328125 237.011719 63.566406 C 223.417969 67.449219 209.996094 71.6875 196.753906 76.984375 C 181.746094 82.636719 167.265625 89.34375 153.140625 96.585938 C 147.84375 99.410156 142.371094 102.234375 137.074219 105.234375 C 135.660156 106.117188 134.070312 107.179688 132.484375 107.355469 C 133.367188 105.941406 134.777344 105.058594 136.015625 104.175781 C 145.195312 97.644531 154.378906 91.109375 164.441406 85.636719 L 168.855469 83.164062 L 173.449219 80.871094 L 182.628906 76.277344 C 185.628906 74.6875 188.808594 73.453125 191.988281 72.21875 C 195.164062 70.980469 198.34375 69.570312 201.523438 68.507812 C 225.183594 60.035156 249.726562 54.914062 273.210938 55.265625 C 275.152344 55.265625 277.09375 55.441406 279.214844 55.621094 C 279.390625 55.621094 279.566406 55.796875 279.742188 55.972656 C 275.152344 56.855469 271.089844 56.855469 267.207031 57.5625 Z M 476.441406 295.402344 C 457.902344 294.519531 439.890625 294.519531 422.765625 295.753906 L 420.292969 295.933594 L 417.820312 296.109375 C 416.230469 296.285156 414.464844 296.285156 412.878906 296.285156 C 412.699219 296.285156 412.523438 296.109375 412.523438 295.933594 C 414.113281 294.34375 417.820312 292.578125 423.292969 291.164062 C 425.945312 290.457031 428.945312 289.929688 432.300781 289.398438 C 433.890625 289.222656 435.65625 288.871094 437.421875 288.871094 C 439.1875 288.691406 440.953125 288.691406 442.71875 288.691406 C 444.484375 288.691406 446.25 288.691406 448.191406 288.691406 C 449.957031 288.691406 451.722656 288.871094 453.488281 289.046875 C 455.253906 289.222656 457.019531 289.398438 458.785156 289.574219 C 460.550781 289.753906 462.140625 290.105469 463.730469 290.457031 C 466.90625 291.164062 469.734375 291.871094 472.027344 292.578125 C 474.5 293.460938 476.265625 294.34375 477.503906 295.226562 C 477.148438 295.402344 476.796875 295.402344 476.441406 295.402344 Z M 342.777344 17.304688 C 353.195312 29.3125 359.90625 41.671875 363.261719 54.207031 C 364.851562 60.210938 367.144531 66.214844 369.617188 72.394531 C 372.089844 78.398438 374.738281 84.578125 377.5625 90.757812 C 377.917969 91.464844 378.09375 92.167969 378.445312 92.875 C 378.445312 93.050781 378.269531 93.050781 378.09375 93.40625 C 376.503906 92.523438 375.972656 91.640625 375.265625 90.757812 C 373.5 88.460938 371.734375 86.34375 369.96875 84.046875 C 368.203125 81.929688 366.617188 79.808594 365.203125 77.515625 C 362.203125 73.101562 359.554688 68.863281 357.082031 64.449219 C 352.136719 55.265625 348.78125 46.085938 345.957031 36.902344 C 343.839844 30.371094 341.894531 23.660156 339.601562 17.128906 C 339.421875 16.421875 339.070312 15.714844 339.953125 14.65625 C 341.542969 15.539062 342.074219 16.421875 342.777344 17.304688 Z M 643.832031 251.082031 C 648.246094 241.546875 653.542969 233.25 658.308594 224.246094 C 660.957031 219.125 663.429688 213.828125 665.375 208 C 667.316406 202.171875 668.90625 195.816406 669.789062 189.285156 C 669.964844 188.402344 669.789062 187.339844 670.492188 186.988281 C 671.375 188.046875 671.199219 188.578125 671.375 189.285156 C 671.90625 193.699219 672.257812 198.113281 672.4375 202.171875 C 672.613281 206.234375 672.4375 210.117188 671.90625 213.828125 C 671.023438 221.242188 669.082031 227.777344 665.726562 233.074219 C 662.195312 238.546875 657.605469 242.609375 652.835938 246.492188 C 649.835938 248.789062 647.011719 251.082031 644.183594 253.910156 C 644.007812 254.085938 643.65625 254.261719 643.125 254.613281 C 642.949219 252.496094 643.476562 251.964844 643.832031 251.082031 Z M 485.800781 349.082031 C 490.039062 349.964844 494.097656 350.847656 498.160156 351.90625 C 502.398438 352.964844 506.28125 354.199219 510.519531 355.4375 C 525.175781 360.203125 539.476562 365.148438 553.425781 372.210938 C 555.015625 372.917969 556.429688 373.976562 558.195312 374.859375 C 557.664062 375.210938 556.957031 375.035156 556.605469 374.859375 C 553.425781 373.625 549.894531 372.5625 546.542969 371.679688 C 543.1875 370.796875 539.832031 369.914062 536.476562 369.03125 C 534.179688 368.503906 532.0625 367.796875 529.945312 367.089844 C 527.648438 366.382812 525.527344 365.679688 523.234375 364.792969 L 519.703125 363.382812 L 515.996094 361.96875 L 508.753906 359.320312 C 503.8125 357.554688 498.691406 355.789062 493.746094 354.023438 C 490.214844 352.789062 487.035156 351.199219 483.503906 349.609375 C 482.976562 349.433594 482.621094 349.257812 482.09375 348.375 C 482.976562 348.375 484.386719 348.902344 485.800781 349.082031 Z M 666.433594 186.105469 C 665.375 192.109375 663.253906 197.054688 662.019531 203.054688 C 660.429688 210.296875 658.132812 216.652344 655.308594 222.65625 C 652.484375 228.660156 649.304688 234.308594 646.125 239.78125 C 642.59375 246.140625 639.945312 253.554688 636.769531 260.441406 C 636.414062 261.148438 636.414062 262.207031 635.355469 262.382812 C 634.648438 260.972656 635.003906 260.265625 635.179688 259.382812 C 636.0625 253.910156 636.945312 248.789062 638.359375 243.84375 C 639.59375 238.898438 641.183594 234.308594 643.125 230.070312 C 646.832031 221.773438 651.601562 214.710938 655.660156 206.765625 C 659.191406 200.054688 662.195312 192.816406 665.019531 185.398438 C 665.375 184.164062 665.902344 183.105469 666.433594 181.867188 C 666.960938 183.988281 666.609375 185.046875 666.433594 186.105469 Z M 513.347656 243.3125 C 512.640625 243.84375 511.757812 243.136719 511.050781 242.785156 C 495.867188 234.839844 480.679688 227.777344 465.140625 220.714844 C 462.492188 219.476562 459.84375 218.417969 457.195312 217.535156 C 454.546875 216.476562 451.898438 215.59375 449.074219 214.886719 L 440.953125 212.589844 C 438.304688 211.882812 435.476562 211.355469 432.828125 210.648438 C 420.644531 207.824219 408.285156 205.351562 396.101562 204.117188 L 395.042969 203.9375 L 394.867188 203.410156 C 404.578125 203.761719 414.644531 204.46875 424.707031 206.410156 C 429.828125 207.292969 434.773438 208.53125 439.890625 209.765625 C 442.539062 210.296875 444.835938 211.179688 447.484375 211.882812 C 449.957031 212.589844 452.605469 213.296875 455.078125 214.179688 C 460.019531 215.945312 465.140625 217.710938 470.085938 219.832031 C 472.558594 220.890625 475.03125 221.949219 477.5 223.007812 L 484.917969 226.539062 C 486.152344 227.070312 487.390625 227.777344 488.625 228.304688 L 492.15625 230.25 L 499.398438 234.308594 L 506.460938 238.722656 C 508.753906 240.3125 511.226562 241.726562 513.347656 243.3125 Z M 558.019531 380.507812 C 554.132812 379.449219 550.425781 378.390625 546.71875 377.683594 C 543.007812 376.800781 539.125 376.09375 535.417969 375.210938 C 527.824219 373.625 520.585938 371.328125 513.347656 368.328125 C 509.636719 366.914062 505.929688 365.148438 502.398438 363.382812 C 500.457031 362.5 498.515625 361.441406 496.75 360.378906 C 494.804688 359.320312 493.039062 358.261719 491.097656 357.203125 C 490.390625 356.847656 489.683594 356.496094 489.15625 355.789062 C 489.332031 355.082031 489.863281 355.613281 490.214844 355.613281 C 501.867188 359.496094 513.167969 363.558594 524.117188 367.796875 C 531.710938 370.796875 539.300781 372.742188 546.894531 375.035156 C 550.425781 376.09375 553.605469 377.332031 557.136719 378.921875 C 558.019531 379.273438 558.722656 379.625 559.605469 380.507812 C 559.078125 381.039062 558.546875 380.6875 558.019531 380.507812 Z M 377.917969 80.339844 C 376.328125 79.457031 376.503906 78.75 376.148438 77.867188 C 372.617188 69.570312 370.148438 61.445312 368.027344 53.324219 C 366.4375 47.320312 364.144531 41.140625 360.964844 35.136719 C 357.785156 28.957031 353.726562 23.128906 348.605469 17.304688 C 347.898438 16.421875 347.371094 15.539062 346.664062 14.832031 C 346.664062 14.65625 346.839844 14.65625 347.191406 14.125 C 359.730469 24.71875 368.382812 36.019531 373.5 46.96875 C 378.800781 58.269531 380.210938 69.390625 377.917969 80.339844 Z M 488.980469 177.804688 C 490.390625 177.804688 491.804688 177.804688 493.214844 177.984375 C 494.628906 178.160156 496.042969 178.335938 497.453125 178.511719 C 500.28125 178.867188 503.28125 179.574219 506.28125 180.277344 C 509.285156 180.984375 512.285156 182.042969 515.464844 183.28125 C 518.464844 184.515625 521.644531 185.753906 524.824219 187.339844 C 527.648438 188.753906 530.472656 190.34375 533.476562 192.109375 C 534.886719 192.992188 536.300781 193.699219 537.710938 194.757812 L 541.949219 197.582031 C 543.007812 198.289062 544.070312 198.996094 545.128906 200.230469 C 544.246094 200.40625 543.363281 199.703125 542.480469 199.347656 C 538.773438 197.582031 535.0625 195.816406 531.355469 194.226562 C 527.648438 192.636719 523.941406 191.226562 520.230469 189.988281 C 512.640625 187.519531 505.398438 185.046875 497.808594 183.28125 C 494.804688 182.574219 491.804688 181.515625 488.625 180.632812 C 487.566406 180.277344 486.507812 180.101562 484.917969 179.042969 C 485.625 177.804688 487.214844 177.804688 488.980469 177.804688 Z M 488.980469 177.804688 " fill-opacity="1" fill-rule="nonzero"/></svg>